<svg xmlns="http://www.w3.org/2000/svg" xmlns:xlink="http://www.w3.org/1999/xlink" width="500" zoomAndPan="magnify" viewBox="0 0 375 374.999991" height="500" preserveAspectRatio="xMidYMid meet" version="1.0"><defs><clipPath id="f120123256"><path d="M 0 296.101562 L 375 296.101562 L 375 375 L 0 375 Z M 0 296.101562 " clip-rule="nonzero"/></clipPath><clipPath id="21ca4b579d"><path d="M 17.25 296.101562 L 357.75 296.101562 C 362.324219 296.101562 366.710938 297.917969 369.949219 301.15625 C 373.183594 304.390625 375 308.777344 375 313.351562 L 375 357.75 C 375 362.324219 373.183594 366.710938 369.949219 369.949219 C 366.710938 373.183594 362.324219 375 357.75 375 L 17.25 375 C 12.675781 375 8.289062 373.183594 5.050781 369.949219 C 1.816406 366.710938 0 362.324219 0 357.75 L 0 313.351562 C 0 308.777344 1.816406 304.390625 5.050781 301.15625 C 8.289062 297.917969 12.675781 296.101562 17.25 296.101562 " clip-rule="nonzero"/></clipPath><clipPath id="dc5b8eca29"><path d="M 0 148.050781 L 375 148.050781 L 375 226.949219 L 0 226.949219 Z M 0 148.050781 " clip-rule="nonzero"/></clipPath><clipPath id="5a5c2f6a57"><path d="M 17.25 148.050781 L 357.75 148.050781 C 362.324219 148.050781 366.710938 149.867188 369.949219 153.101562 C 373.183594 156.339844 375 160.726562 375 165.300781 L 375 209.699219 C 375 214.273438 373.183594 218.660156 369.949219 221.898438 C 366.710938 225.132812 362.324219 226.949219 357.75 226.949219 L 17.25 226.949219 C 12.675781 226.949219 8.289062 225.132812 5.050781 221.898438 C 1.816406 218.660156 0 214.273438 0 209.699219 L 0 165.300781 C 0 160.726562 1.816406 156.339844 5.050781 153.101562 C 8.289062 149.867188 12.675781 148.050781 17.25 148.050781 " clip-rule="nonzero"/></clipPath><clipPath id="8a9f868baa"><path d="M 0 0 L 375 0 L 375 78.898438 L 0 78.898438 Z M 0 0 " clip-rule="nonzero"/></clipPath><clipPath id="ba8e0cb0dd"><path d="M 17.25 0 L 357.75 0 C 362.324219 0 366.710938 1.816406 369.949219 5.050781 C 373.183594 8.289062 375 12.675781 375 17.25 L 375 61.648438 C 375 66.222656 373.183594 70.609375 369.949219 73.84375 C 366.710938 77.082031 362.324219 78.898438 357.75 78.898438 L 17.25 78.898438 C 12.675781 78.898438 8.289062 77.082031 5.050781 73.84375 C 1.816406 70.609375 0 66.222656 0 61.648438 L 0 17.25 C 0 12.675781 1.816406 8.289062 5.050781 5.050781 C 8.289062 1.816406 12.675781 0 17.25 0 " clip-rule="nonzero"/></clipPath></defs><g clip-path="url(#f120123256)"><g clip-path="url(#21ca4b579d)"><path fill="#ffffff" d="M 0 296.101562 L 375 296.101562 L 375 375 L 0 375 Z M 0 296.101562 " fill-opacity="1" fill-rule="nonzero"/></g></g><g clip-path="url(#dc5b8eca29)"><g clip-path="url(#5a5c2f6a57)"><path fill="#ffffff" d="M 0 148.050781 L 375 148.050781 L 375 226.949219 L 0 226.949219 Z M 0 148.050781 " fill-opacity="1" fill-rule="nonzero"/></g></g><g clip-path="url(#8a9f868baa)"><g clip-path="url(#ba8e0cb0dd)"><path fill="#ffffff" d="M 0 0 L 375 0 L 375 78.898438 L 0 78.898438 Z M 0 0 " fill-opacity="1" fill-rule="nonzero"/></g></g></svg>
