<svg width="200" height="197" viewBox="0 0 200 197" fill="none" xmlns="http://www.w3.org/2000/svg">
<g clip-path="url(#clip0_86_2533)">
<path d="M195.74 13.3467V10.9602L189.529 4.84495H187.108L182.188 -0.0020752H0V179.455L4.3 183.692V185.828L10.5104 191.946H12.6813L17.8083 196.996H199.998V17.5412L195.74 13.3467ZM194.81 98.5964L193.175 100.207V180.688C189.375 184.431 187.244 186.53 183.444 190.273H165.321C164.66 189.625 163.96 188.935 163.144 188.131H119.125C118.306 188.935 117.608 189.625 116.948 190.273H101.738C101.115 190.887 100.596 191.398 100.102 191.884H19.9563L5.1875 177.337V98.3974C5.68125 97.911 6.20208 97.4001 6.82292 96.7865V16.3079C10.6229 12.5649 12.7542 10.4656 16.5563 6.7226H33.1542C33.8125 7.37311 34.5125 8.06056 35.3292 8.86498H79.35L81.525 6.7226H98.2625C98.8854 6.10903 99.4042 5.59806 99.8979 5.11172H180.04L194.808 19.6589V98.5985L194.81 98.5964Z" fill="#9ED5B7"/>
<path d="M88.1521 109.881H110.069V88.2929H88.1521V109.881ZM111.854 113.396H86.3688C85.3834 113.396 84.5854 112.608 84.5854 111.637V86.5363C84.5854 85.5637 85.3834 84.7777 86.3688 84.7777H111.854C112.838 84.7777 113.638 85.5637 113.638 86.5363V111.637C113.638 112.608 112.838 113.396 111.854 113.396Z" fill="white"/>
<mask id="mask0_86_2533" style="mask-type:luminance" maskUnits="userSpaceOnUse" x="38" y="39" width="33" height="32">
<path d="M38.7104 39.5929H70.4V70.92H38.7104V39.5929Z" fill="white"/>
</mask>
<g mask="url(#mask0_86_2533)">
<path d="M40.4959 70.485C39.5104 70.485 38.7104 69.699 38.7104 68.7284V41.3495C38.7104 40.3788 39.5104 39.5929 40.4959 39.5929H68.2875C69.2729 39.5929 70.0729 40.3788 70.0729 41.3495C70.0729 42.3201 69.2729 43.1081 68.2875 43.1081H42.2792V68.7284C42.2792 69.699 41.4792 70.485 40.4959 70.485Z" fill="white"/>
</g>
<mask id="mask1_86_2533" style="mask-type:luminance" maskUnits="userSpaceOnUse" x="128" y="39" width="32" height="32">
<path d="M128 39.5929H159.51V70.92H128V39.5929Z" fill="white"/>
</mask>
<g mask="url(#mask1_86_2533)">
<path d="M157.727 70.485C156.742 70.485 155.944 69.699 155.944 68.7284V43.1081H129.933C128.948 43.1081 128.148 42.3201 128.148 41.3495C128.148 40.3788 128.948 39.5929 129.933 39.5929H157.727C158.71 39.5929 159.51 40.3788 159.51 41.3495V68.7284C159.51 69.699 158.71 70.485 157.727 70.485Z" fill="white"/>
</g>
<mask id="mask2_86_2533" style="mask-type:luminance" maskUnits="userSpaceOnUse" x="38" y="127" width="33" height="32">
<path d="M38.7104 127.656H70.4V158.581H38.7104V127.656Z" fill="white"/>
</mask>
<g mask="url(#mask2_86_2533)">
<path d="M68.2875 158.581H40.4959C39.5104 158.581 38.7104 157.795 38.7104 156.824V129.445C38.7104 128.475 39.5104 127.689 40.4959 127.689C41.4792 127.689 42.2792 128.475 42.2792 129.445V155.066H68.2875C69.2729 155.066 70.0729 155.852 70.0729 156.824C70.0729 157.795 69.2729 158.581 68.2875 158.581Z" fill="white"/>
</g>
<mask id="mask3_86_2533" style="mask-type:luminance" maskUnits="userSpaceOnUse" x="128" y="127" width="32" height="32">
<path d="M128 127.656H159.51V158.581H128V127.656Z" fill="white"/>
</mask>
<g mask="url(#mask3_86_2533)">
<path d="M157.727 158.581H129.933C128.948 158.581 128.148 157.795 128.148 156.824C128.148 155.852 128.948 155.066 129.933 155.066H155.944V129.445C155.944 128.475 156.742 127.689 157.727 127.689C158.71 127.689 159.51 128.475 159.51 129.445V156.824C159.51 157.795 158.71 158.581 157.727 158.581Z" fill="white"/>
</g>
</g>
<defs>
<clipPath id="clip0_86_2533">
<rect width="200" height="197" fill="white"/>
</clipPath>
</defs>
</svg>
