<svg width="216" height="213" viewBox="0 0 216 213" fill="none" xmlns="http://www.w3.org/2000/svg">
<g clip-path="url(#clip0_86_2533)" filter="url(#filter0_d_86_2533)">
<path d="M203.74 20.3467V17.9602L197.529 11.8449H195.108L190.188 6.99792H8V186.455L12.3 190.692V192.828L18.5104 198.946H20.6813L25.8083 203.996H207.998V24.5412L203.74 20.3467ZM202.81 105.596L201.175 107.207V187.688C197.375 191.431 195.244 193.53 191.444 197.273H173.321C172.66 196.625 171.96 195.935 171.144 195.131H127.125C126.306 195.935 125.608 196.625 124.948 197.273H109.738C109.115 197.887 108.596 198.398 108.102 198.884H27.9563L13.1875 184.337V105.397C13.6813 104.911 14.2021 104.4 14.8229 103.786V23.3079C18.6229 19.5649 20.7542 17.4656 24.5563 13.7226H41.1542C41.8125 14.3731 42.5125 15.0606 43.3292 15.865H87.35L89.525 13.7226H106.263C106.885 13.109 107.404 12.5981 107.898 12.1117H188.04L202.808 26.6589V105.598L202.81 105.596Z" fill="#9ED5B7"/>
<path d="M96.1521 116.881H118.069V95.2929H96.1521V116.881ZM119.854 120.396H94.3688C93.3834 120.396 92.5854 119.608 92.5854 118.637V93.5363C92.5854 92.5637 93.3834 91.7777 94.3688 91.7777H119.854C120.838 91.7777 121.638 92.5637 121.638 93.5363V118.637C121.638 119.608 120.838 120.396 119.854 120.396Z" fill="white"/>
<mask id="mask0_86_2533" style="mask-type:luminance" maskUnits="userSpaceOnUse" x="46" y="46" width="33" height="32">
<path d="M46.7104 46.5929H78.4V77.92H46.7104V46.5929Z" fill="white"/>
</mask>
<g mask="url(#mask0_86_2533)">
<path d="M48.4959 77.485C47.5104 77.485 46.7104 76.699 46.7104 75.7284V48.3495C46.7104 47.3788 47.5104 46.5929 48.4959 46.5929H76.2875C77.2729 46.5929 78.0729 47.3788 78.0729 48.3495C78.0729 49.3201 77.2729 50.1081 76.2875 50.1081H50.2792V75.7284C50.2792 76.699 49.4792 77.485 48.4959 77.485Z" fill="white"/>
</g>
<mask id="mask1_86_2533" style="mask-type:luminance" maskUnits="userSpaceOnUse" x="136" y="46" width="32" height="32">
<path d="M136 46.5929H167.51V77.92H136V46.5929Z" fill="white"/>
</mask>
<g mask="url(#mask1_86_2533)">
<path d="M165.727 77.485C164.742 77.485 163.944 76.699 163.944 75.7284V50.1081H137.933C136.948 50.1081 136.148 49.3201 136.148 48.3495C136.148 47.3788 136.948 46.5929 137.933 46.5929H165.727C166.71 46.5929 167.51 47.3788 167.51 48.3495V75.7284C167.51 76.699 166.71 77.485 165.727 77.485Z" fill="white"/>
</g>
<mask id="mask2_86_2533" style="mask-type:luminance" maskUnits="userSpaceOnUse" x="46" y="134" width="33" height="32">
<path d="M46.7104 134.656H78.4V165.581H46.7104V134.656Z" fill="white"/>
</mask>
<g mask="url(#mask2_86_2533)">
<path d="M76.2875 165.581H48.4959C47.5104 165.581 46.7104 164.795 46.7104 163.824V136.445C46.7104 135.475 47.5104 134.689 48.4959 134.689C49.4792 134.689 50.2792 135.475 50.2792 136.445V162.066H76.2875C77.2729 162.066 78.0729 162.852 78.0729 163.824C78.0729 164.795 77.2729 165.581 76.2875 165.581Z" fill="white"/>
</g>
<mask id="mask3_86_2533" style="mask-type:luminance" maskUnits="userSpaceOnUse" x="136" y="134" width="32" height="32">
<path d="M136 134.656H167.51V165.581H136V134.656Z" fill="white"/>
</mask>
<g mask="url(#mask3_86_2533)">
<path d="M165.727 165.581H137.933C136.948 165.581 136.148 164.795 136.148 163.824C136.148 162.852 136.948 162.066 137.933 162.066H163.944V136.445C163.944 135.475 164.742 134.689 165.727 134.689C166.71 134.689 167.51 135.475 167.51 136.445V163.824C167.51 164.795 166.71 165.581 165.727 165.581Z" fill="white"/>
</g>
</g>
<defs>
<filter id="filter0_d_86_2533" x="0" y="0" width="216" height="213" filterUnits="userSpaceOnUse" color-interpolation-filters="sRGB">
<feFlood flood-opacity="0" result="BackgroundImageFix"/>
<feColorMatrix in="SourceAlpha" type="matrix" values="0 0 0 0 0 0 0 0 0 0 0 0 0 0 0 0 0 0 127 0" result="hardAlpha"/>
<feOffset dy="1"/>
<feGaussianBlur stdDeviation="4"/>
<feColorMatrix type="matrix" values="0 0 0 0 0.619608 0 0 0 0 0.835294 0 0 0 0 0.717647 0 0 0 0.83 0"/>
<feBlend mode="normal" in2="BackgroundImageFix" result="effect1_dropShadow_86_2533"/>
<feBlend mode="normal" in="SourceGraphic" in2="effect1_dropShadow_86_2533" result="shape"/>
</filter>
<clipPath id="clip0_86_2533">
<rect width="200" height="197" fill="white" transform="translate(8 7)"/>
</clipPath>
</defs>
</svg>
