<svg width="1080" height="1080" viewBox="0 0 1080 1080" fill="none" xmlns="http://www.w3.org/2000/svg">
<g clip-path="url(#clip0_149_16457)">
<path d="M148.969 763.245C151.458 767.542 153.885 771.875 156.427 776.135L164.469 788.672C167.063 792.906 169.964 796.932 172.859 800.974C175.766 804.99 178.531 809.12 181.573 813.047C187.734 820.828 193.682 828.787 200.349 836.151L205.224 841.776C206.823 843.672 208.479 845.531 210.224 847.292L220.5 858.068C234.583 872.047 249.182 885.568 265 897.568L270.849 902.172C272.807 903.698 274.88 905.073 276.885 906.531L289.016 915.162L301.536 923.219L307.802 927.24L314.25 930.953L327.172 938.349L340.422 945.141C342.635 946.245 344.818 947.448 347.073 948.484L353.854 951.552C358.391 953.568 362.875 955.708 367.448 957.615C376.708 961.177 385.828 965.135 395.307 968.099C400.021 969.646 404.677 971.38 409.443 972.776L423.766 976.844C428.516 978.302 433.375 979.318 438.208 980.448C443.052 981.516 447.854 982.781 452.734 983.688C462.521 985.354 472.24 987.432 482.12 988.458C487.042 989.047 491.958 989.787 496.896 990.26L511.745 991.385C514.219 991.552 516.688 991.813 519.172 991.901L526.609 992.089L541.495 992.469V971.917L527.276 971.547L520.172 971.37C517.807 971.281 515.448 971.031 513.083 970.875L498.906 969.802C494.198 969.349 489.5 968.635 484.807 968.073C475.375 967.104 466.104 965.099 456.766 963.526C452.104 962.667 447.526 961.448 442.901 960.432C438.292 959.349 433.656 958.396 429.125 956.995L415.458 953.115C410.911 951.781 406.479 950.12 401.979 948.651C392.932 945.823 384.24 942.037 375.396 938.641C371.026 936.823 366.755 934.771 362.422 932.849L355.943 929.927C353.792 928.948 351.719 927.797 349.594 926.734L336.948 920.255L324.62 913.193L318.453 909.656L312.479 905.823L300.521 898.135L288.943 889.891C287.031 888.495 285.042 887.193 283.188 885.734L277.604 881.333C262.495 869.885 248.563 856.958 235.12 843.625L225.307 833.339C223.641 831.662 222.063 829.885 220.536 828.073L215.891 822.698C209.521 815.667 203.849 808.068 197.964 800.641C195.063 796.896 192.438 792.943 189.646 789.115C186.885 785.266 184.109 781.427 181.635 777.38L173.964 765.417C171.536 761.349 169.234 757.208 166.849 753.115L148.969 763.234V763.245Z" fill="white"/>
<path d="M541.526 111.328V90.8021C475.672 90.8125 409.886 105.432 350.261 133.365C320.396 147.234 292.193 164.604 266.182 184.776C240.156 204.932 216.307 227.885 195.162 253.12C152.964 303.682 122.156 363.615 105.386 427.276C88.7136 490.99 86.4428 558.344 98.2032 623.099L118.396 619.411C117.63 614.937 116.734 610.474 116.057 605.995L114.349 592.474L113.479 585.719L112.964 578.927L111.927 565.339C111.651 560.802 111.662 556.255 111.511 551.708L111.333 544.891L111.25 541.479L111.344 538.068C111.662 528.984 111.568 519.875 112.474 510.828L113.516 497.234L115.234 483.719L116.083 476.953C116.391 474.708 116.859 472.479 117.24 470.245L119.636 456.828C120.458 452.365 121.63 447.969 122.599 443.531C123.672 439.125 124.495 434.641 125.854 430.307C128.354 421.578 130.667 412.792 133.761 404.25C139.333 386.953 146.604 370.266 154.292 353.828L160.505 341.703C161.557 339.687 162.526 337.641 163.646 335.661L167.047 329.755L173.854 317.958L181.208 306.49L184.896 300.76L188.854 295.208L196.75 284.099L205.177 273.391L209.386 268.031L213.849 262.875L222.766 252.573L232.162 242.693L236.865 237.76C238.474 236.151 240.146 234.62 241.781 233.036L251.641 223.63C253.537 218.771 255.547 213.958 258.198 207.646L262.755 203.703L267.484 199.979L276.958 192.531C280.052 189.969 283.453 187.797 286.688 185.422L296.511 178.437L306.656 171.932C310.068 169.818 313.344 167.469 316.865 165.547L327.307 159.542L332.531 156.536L337.891 153.786C343.729 153.703 349.474 153.646 355.156 153.667C413.115 125.943 477.193 111.38 541.516 111.328H541.526Z" fill="white"/>
<path d="M79.5209 635.5C90.8959 691.318 112.49 745.021 142.927 793.135C149.24 795.536 154.766 797.583 159.958 799.401C165.292 801.12 170.214 802.646 175.104 804.115C184.724 807.125 194.755 809.521 207.094 812.255L197.162 799.625L187.828 786.547C184.62 782.25 181.859 777.661 178.948 773.167C176.052 768.661 173.099 764.198 170.521 759.495C159.469 741.13 150.266 721.719 142.208 701.896C140.302 696.901 138.141 691.995 136.443 686.911L131.297 671.703C129.62 666.62 128.318 661.417 126.802 656.286C126.083 653.708 125.307 651.151 124.63 648.552L122.828 640.729L121.021 632.901C120.401 630.297 119.792 627.688 119.375 625.047L116.547 609.24C115.662 603.964 115.151 598.62 114.422 593.318L113.417 585.344L112.813 577.328C109.172 582.589 105.932 587.396 103.224 591.958C100.422 596.531 97.8282 600.896 95.2292 605.339C92.5574 609.792 90.1928 614.281 87.6824 619.182C85.1511 624.089 82.4688 629.401 79.4949 635.516L79.5209 635.5Z" fill="white"/>
<path d="M152.844 295.51C134.807 324.01 119.635 354.391 108.391 386.224C110.922 393.932 112.953 399.787 115.016 405.552C116 408.417 117.146 411.313 118.411 414.37C119.672 417.391 121.01 420.609 122.516 424.219C136.661 373.604 159.974 325.458 191.391 283.24C183.964 285.292 178.057 287.031 172.109 288.839C169.099 289.719 166.193 290.719 163.089 291.823C159.948 292.953 156.604 294.162 152.844 295.51Z" fill="white"/>
<path d="M934.068 319.99C931.583 315.693 929.151 311.359 926.609 307.099L918.573 294.563C915.974 290.328 913.073 286.302 910.182 282.26C907.271 278.245 904.511 274.109 901.469 270.182C895.307 262.406 889.354 254.448 882.693 247.083L877.813 241.458C876.214 239.563 874.563 237.703 872.813 235.943L862.542 225.167C848.458 211.188 833.859 197.667 818.037 185.667L812.188 181.063C810.229 179.536 808.162 178.161 806.156 176.703L794.026 168.073L781.505 160.016L775.24 155.995L768.787 152.281L755.87 144.885L742.62 138.094C740.401 136.984 738.224 135.786 735.969 134.75L729.182 131.682C724.646 129.667 720.167 127.526 715.594 125.62C706.333 122.052 697.214 118.099 687.734 115.135C683.021 113.589 678.365 111.854 673.594 110.458L659.271 106.391C654.521 104.932 649.662 103.917 644.828 102.786C639.99 101.719 635.182 100.453 630.307 99.5469C620.521 97.8802 610.797 95.8021 600.922 94.776C595.995 94.1875 591.078 93.4479 586.146 92.974L571.297 91.849C568.818 91.6823 566.354 91.4323 563.87 91.3281L556.427 91.1458L541.542 90.7656V111.318L555.766 111.688L562.87 111.865C565.234 111.953 567.594 112.203 569.958 112.359L584.13 113.432C588.844 113.885 593.537 114.599 598.234 115.161C607.667 116.13 616.932 118.135 626.276 119.708C630.932 120.568 635.516 121.786 640.136 122.802C644.745 123.885 649.386 124.833 653.912 126.24L667.578 130.12C672.125 131.453 676.563 133.115 681.063 134.583C690.109 137.411 698.802 141.198 707.646 144.594C712.016 146.411 716.287 148.464 720.62 150.385L727.099 153.307C729.25 154.286 731.318 155.438 733.443 156.5L746.094 162.979L758.422 170.036L764.583 173.578L770.563 177.411L782.521 185.099L794.099 193.344C796.011 194.74 797.995 196.042 799.854 197.5L805.438 201.901C820.542 213.349 834.479 226.276 847.922 239.609L857.734 249.891C859.396 251.573 860.979 253.349 862.505 255.161L867.151 260.536C873.516 267.568 879.193 275.167 885.078 282.594C887.979 286.339 890.604 290.292 893.391 294.115C896.156 297.969 898.927 301.807 901.406 305.854L909.073 317.818C911.505 321.885 913.807 326.026 916.188 330.115L934.068 320V319.99Z" fill="white"/>
<path d="M541.526 971.896V992.422C607.38 992.411 673.162 977.792 732.787 949.859C762.651 935.99 790.854 918.62 816.865 898.448C842.896 878.297 866.745 855.344 887.886 830.104C930.089 779.542 960.891 719.609 977.667 655.948C994.333 592.234 996.604 524.88 984.844 460.125L964.656 463.813C965.422 468.286 966.318 472.75 966.99 477.229L968.703 490.75L969.568 497.505L970.089 504.297L971.12 517.885C971.401 522.427 971.391 526.969 971.537 531.516L971.714 538.339L971.797 541.745L971.703 545.156C971.391 554.24 971.484 563.349 970.578 572.396L969.531 585.99L967.813 599.505L966.964 606.271C966.662 608.516 966.188 610.745 965.807 612.979L963.417 626.396C962.594 630.859 961.422 635.255 960.448 639.693C959.38 644.099 958.557 648.583 957.198 652.917C954.693 661.646 952.38 670.438 949.287 678.974C943.714 696.271 936.443 712.958 928.755 729.396L922.547 741.521C921.495 743.536 920.521 745.589 919.406 747.563L916.005 753.469L909.193 765.266L901.839 776.734L898.151 782.464L894.198 788.016L886.297 799.125L877.87 809.833L873.667 815.193L869.203 820.349L860.287 830.651L850.886 840.531L846.182 845.464C844.578 847.073 842.906 848.604 841.271 850.188L831.412 859.594C829.516 864.453 827.5 869.266 824.849 875.578L820.292 879.526L815.563 883.25L806.094 890.693C802.995 893.255 799.594 895.427 796.359 897.802L786.537 904.786L776.391 911.292C772.984 913.406 769.703 915.755 766.182 917.677L755.74 923.682L750.521 926.688L745.162 929.438C739.323 929.521 733.573 929.578 727.891 929.557C669.938 957.281 605.854 971.844 541.531 971.896H541.526Z" fill="white"/>
<path d="M1003.52 447.734C992.146 391.917 970.547 338.214 940.109 290.099C933.802 287.693 928.276 285.651 923.083 283.833C917.75 282.115 912.823 280.589 907.938 279.12C898.318 276.109 888.281 273.714 875.948 270.979L885.88 283.609L895.214 296.687C898.422 300.984 901.182 305.573 904.094 310.068C906.984 314.573 909.943 319.036 912.521 323.74C923.573 342.104 932.776 361.516 940.833 381.333C942.734 386.333 944.896 391.24 946.599 396.323L951.745 411.531C953.417 416.615 954.719 421.818 956.234 426.948C956.958 429.526 957.734 432.083 958.406 434.677L960.208 442.505L962.021 450.333C962.641 452.937 963.25 455.542 963.667 458.187L966.495 473.995C967.38 479.271 967.885 484.615 968.62 489.917L969.625 497.891L970.224 505.901C973.865 500.646 977.109 495.839 979.818 491.276C982.615 486.703 985.214 482.339 987.813 477.896C990.479 473.443 992.844 468.953 995.359 464.052C997.891 459.146 1000.57 453.833 1003.55 447.719L1003.52 447.734Z" fill="white"/>
<path d="M930.198 787.714C948.235 759.214 963.406 728.833 974.651 697C972.12 689.297 970.089 683.437 968.026 677.672C967.037 674.807 965.891 671.911 964.625 668.854C963.37 665.833 962.031 662.62 960.526 659.005C946.375 709.625 923.063 757.766 891.646 799.984C899.078 797.932 904.979 796.193 910.932 794.385C913.943 793.505 916.844 792.51 919.948 791.401C923.094 790.271 926.438 789.062 930.198 787.714Z" fill="white"/>
<path d="M540.672 1080.06C531.037 1080.03 522.51 1079.83 514.578 1079.46L512.198 1079.35L513.75 1045.9L516.13 1046.02C523.516 1046.35 531.776 1046.54 540.667 1046.57C541.755 1046.57 542.828 1046.57 543.901 1046.55L546.292 1046.53L546.568 1080.02L544.177 1080.04C543.005 1080.05 541.839 1080.06 540.667 1080.06H540.672ZM517.193 1074.8C524.375 1075.09 532.089 1075.25 540.682 1075.28C541.042 1075.28 541.406 1075.28 541.755 1075.28L541.563 1051.35H540.667C532.646 1051.34 525.141 1051.19 518.302 1050.9L517.193 1074.81V1074.8Z" fill="white"/>
<path d="M558.359 33.901L555.969 33.8281C546.745 33.5416 537.385 33.5052 528.172 33.7187L525.781 33.7708L525.01 0.296838L527.396 0.239548C537.182 0.0207969 547.141 0.0572553 556.995 0.359338L559.385 0.432256L558.349 33.901H558.359ZM539.953 28.8021C544.547 28.8021 549.146 28.8593 553.729 28.9791L554.469 5.06246C546.281 4.84371 538.042 4.81246 529.901 4.96351L530.448 28.8854C533.604 28.8281 536.776 28.8021 539.943 28.8021H539.953Z" fill="white"/>
<path d="M0.104167 550.849L0.0625 548.453C0.0208333 545.667 0 542.875 0 540.083C0 533.042 0.140625 525.901 0.406251 518.87L0.5 516.484L33.9583 517.776L33.8646 520.161C33.6094 526.786 33.4792 533.495 33.4792 540.083C33.4792 542.708 33.4948 545.339 33.5417 547.964L33.5781 550.349L0.09375 550.859L0.104167 550.849ZM5.09896 521.438C4.89063 527.635 4.77604 533.891 4.77604 540.083C4.77604 542.063 4.78646 544.031 4.8125 545.995L28.7448 545.635C28.7292 543.786 28.7188 541.932 28.7188 540.073C28.7188 534.214 28.8229 528.266 29.026 522.359L5.10938 521.438H5.09896Z" fill="white"/>
<path d="M38.6771 467.224L5.5625 462.297L5.91146 459.932C18.25 377.047 50.4219 296.99 98.9635 228.417L100.339 226.469L117.333 238.5C138.411 209.042 162.719 181.656 189.646 157.031L175.604 141.542L177.375 139.932C214.057 106.677 255.047 78.6354 299.219 56.5989L301.354 55.5364L316.302 85.5L314.167 86.5729C295.88 95.6927 277.745 106.219 260.203 117.859L271.802 135.182L269.818 136.516C204.219 180.417 149.849 240.125 112.583 309.177L111.448 311.286L93.1875 301.437C84.8438 317.062 77.2656 333.224 70.6406 349.521L89.974 357.24L89.0833 359.453C85.6823 367.984 82.4688 376.75 79.5417 385.505L78.7813 387.766L58.9896 381.151C49.9323 408.51 43.2188 436.667 39.0208 464.87L38.6719 467.234L38.6771 467.224ZM10.9948 458.271L34.6615 461.792C39.0417 433.323 45.9531 404.927 55.2292 377.354L55.9844 375.089L75.7865 381.703C78.276 374.38 80.9635 367.057 83.7813 359.891L64.4427 352.172L65.3281 349.958C72.526 331.995 80.8698 314.198 90.1302 297.057L91.2656 294.948L109.536 304.807C146.755 236.661 200.505 177.635 265.193 133.875L253.589 116.536L255.578 115.208C273.214 103.38 291.484 92.6719 309.917 83.3646L299.234 61.9583C256.979 83.2708 217.693 110.151 182.385 141.885L196.422 157.359L194.646 158.969C166.677 184.307 141.516 212.656 119.865 243.214L118.49 245.161L101.505 233.141C54.599 300.005 23.349 377.75 10.9948 458.271Z" fill="white"/>
<path d="M1079.04 572.047L1045.6 570.245L1045.73 567.859C1046.23 558.682 1046.47 549.344 1046.47 540.083C1046.47 537.781 1046.43 535.479 1046.39 533.182V533.104L1025.69 533.469L1025.65 531.073C1024.83 484.797 1017.36 438.901 1003.44 394.672L1002.71 392.385L1034.65 382.333L1035.37 384.615C1049.35 429.005 1057.25 475.078 1058.88 521.573L1079.63 520.948L1079.7 523.328C1079.87 528.865 1079.96 534.5 1079.96 540.073C1079.96 549.896 1079.69 559.859 1079.17 569.662L1079.04 572.047ZM1050.63 565.724L1074.52 567.01C1074.96 558.057 1075.19 549.01 1075.19 540.063C1075.19 535.333 1075.12 530.568 1075 525.854L1054.26 526.479L1054.18 524.099C1052.79 478.026 1045.17 432.349 1031.54 388.323L1008.71 395.51C1022.08 438.719 1029.38 483.469 1030.39 528.599L1051.08 528.24L1051.17 533.078C1051.22 535.417 1051.26 537.745 1051.26 540.083C1051.26 548.63 1051.05 557.25 1050.64 565.734L1050.63 565.724Z" fill="white"/>
<path d="M635.885 1050.4L629.536 1017.53L631.885 1017.07C677.281 1008.31 721.219 993.057 762.479 971.771L764.604 970.672L774.193 989.25C806.828 972.193 837.74 951.443 866.135 927.51L852.698 911.677L854.521 910.135C914.635 859.109 961.797 793.589 990.917 720.63L991.802 718.411L1011.1 726.109C1017.6 709.672 1023.28 692.776 1028.01 675.812L1007.87 670.333L1008.5 668.031C1010.91 659.182 1013.1 650.109 1015.03 641.062L1015.53 638.724L1035.97 643.068C1037.51 635.729 1038.74 629.167 1039.74 623.078L1040.13 620.724L1073.17 626.167L1072.78 628.521C1059.16 711.177 1025.74 790.724 976.13 858.557L974.719 860.49L957.854 848.151C936.25 877.427 911.542 904.443 884.349 928.536L898.141 944.224L896.349 945.802C859.156 978.495 817.734 1005.9 773.234 1027.24L771.078 1028.27L761.995 1009.34C722.469 1028.08 680.849 1041.74 638.26 1049.97L635.911 1050.42L635.885 1050.4ZM635.13 1021.31L639.667 1044.8C681.812 1036.45 722.974 1022.72 762.052 1003.98L764.203 1002.95L773.286 1021.87C815.87 1001.21 855.573 974.948 891.37 943.76L877.583 928.073L879.385 926.49C907.615 901.719 933.193 873.755 955.385 843.375L956.802 841.443L973.656 853.771C1021.58 787.609 1054.04 710.354 1067.65 630.062L1044.04 626.177C1042.98 632.318 1041.7 638.953 1040.13 646.365L1039.63 648.703L1019.18 644.349C1017.54 651.927 1015.7 659.505 1013.71 666.943L1033.86 672.432L1033.23 674.74C1028.12 693.417 1021.87 712.036 1014.64 730.083L1013.74 732.297L994.443 724.604C965.281 796.656 918.656 861.443 859.417 912.214L872.854 928.052L871.042 929.599C841.26 954.932 808.698 976.797 774.26 994.594L772.135 995.693L762.542 977.099C722.208 997.672 679.38 1012.54 635.135 1021.31H635.13Z" fill="white"/>
<path d="M66.6405 753.339L65.6718 751.156C45.4635 705.844 31.8801 658.026 25.3176 609.026L25.0051 606.661L58.1926 602.214L58.5103 604.578C64.6562 650.411 77.3489 695.146 96.2551 737.531L97.2239 739.708L66.6405 753.349V753.339ZM30.3749 610.75C36.8853 657.693 49.8958 703.505 69.0624 747.026L90.9166 737.281C72.677 695.854 60.2916 652.24 54.0833 607.573L30.3645 610.75H30.3749Z" fill="white"/>
<path d="M366.026 86.5885L354.151 55.276L356.385 54.427C402.792 36.8333 451.328 26.0312 500.667 22.2968L503.047 22.1198L505.573 55.5156L503.188 55.6927C457.057 59.177 411.662 69.2812 368.26 85.7291L366.026 86.5833V86.5885ZM360.313 58.0573L368.797 80.4375C411.198 64.5989 455.458 54.7395 500.443 51.125L498.641 27.2656C451.375 31.0573 404.87 41.4166 360.313 58.0677V58.0573Z" fill="white"/>
<path d="M458.057 1073.89L455.703 1073.52C372.927 1060.53 293.12 1027.73 224.927 978.651L222.984 977.255L235.167 960.328C205.818 939.005 178.615 914.49 154.24 887.417L138.651 901.328L137.063 899.547C104.083 862.615 76.3595 821.401 54.6772 777.057L53.6199 774.917L83.698 760.193L84.7501 762.339C98.5834 790.615 115.318 817.912 134.521 843.526L151.125 830.984L152.568 832.885C200.125 895.859 262.839 946.708 333.953 979.938L336.115 980.953L327.333 999.74C343.386 1007.17 359.927 1013.8 376.589 1019.49L383.182 999.75L385.448 1000.51C394.151 1003.42 403.078 1006.13 411.995 1008.55L414.297 1009.17L408.807 1029.33C426.172 1033.99 443.672 1037.72 460.875 1040.42L463.234 1040.79L458.047 1073.86L458.057 1073.89ZM229.646 976.167C296.167 1023.57 373.667 1055.43 454.073 1068.41L457.781 1044.78C440.401 1041.96 422.74 1038.11 405.24 1033.33L402.938 1032.7L408.427 1012.55C400.964 1010.47 393.505 1008.21 386.188 1005.81L379.578 1025.57L377.307 1024.81C358.964 1018.65 340.734 1011.33 323.12 1003.07L320.958 1002.06L329.74 983.266C259.542 950.026 197.531 899.76 150.172 837.682L133.568 850.224L132.125 848.318C112.63 822.568 95.599 795.078 81.4897 766.589L59.9949 777.104C80.9792 819.516 107.557 859.026 139.021 894.578L154.609 880.662L156.198 882.443C181.276 910.563 209.438 935.927 239.875 957.844L241.818 959.24L229.646 976.156V976.167Z" fill="white"/>
<path d="M992.807 312.891L991.729 310.766C987.469 302.385 982.719 293.719 977.588 284.953L959.599 295.557L958.391 293.5C918.302 225.526 861.802 167.813 795.005 126.609L792.969 125.354L803.865 107.693C788.87 98.5469 773.177 90.0625 757.135 82.4583L748.338 101.266L746.177 100.25C737.833 96.349 729.276 92.6406 720.729 89.224L718.51 88.3385L726.229 69.0365C689 54.3073 650.349 44.0469 611.323 38.5521L608.958 38.2188L613.635 5.0625L616 5.39583C698.995 17.0833 779.302 48.6406 848.224 96.6458L850.187 98.0104L838.286 115.099C867.984 135.99 895.562 160.078 920.318 186.766L935.687 172.615L937.302 174.375C970.844 210.797 999.193 251.568 1021.58 295.568L1022.66 297.703L992.818 312.885L992.807 312.891ZM979.271 278.401L980.49 280.458C985.693 289.266 990.536 298.005 994.896 306.469L1016.22 295.625C994.573 253.536 967.396 214.448 935.401 179.391L920.042 193.526L918.427 191.76C892.948 164.052 864.406 139.109 833.588 117.656L831.63 116.286L843.521 99.2135C776.302 52.8542 698.312 22.2135 617.693 10.4687L614.354 34.1615C653.729 39.901 692.703 50.4427 730.219 65.4844L732.437 66.375L724.724 85.6771C731.875 88.5781 739.026 91.6719 746.036 94.9063L754.844 76.0938L757.005 77.1094C774.682 85.3958 791.979 94.7396 808.411 104.87L810.443 106.125L799.547 123.792C865.453 164.891 921.297 221.943 961.292 289.005L979.292 278.391L979.271 278.401Z" fill="white"/>
<path d="M539.979 959.875L538.672 959.87L538.911 919.245L539.979 919.255V959.875Z" fill="white"/>
<path d="M528.771 959.729L526.286 959.656L527.609 919.063L529.854 919.125L528.771 959.729ZM516.344 959.219L513.922 959.083L516.328 918.536L518.625 918.672L516.344 959.229V959.219ZM503.937 958.354L501.516 958.141L505.12 917.677L507.411 917.88L503.937 958.354ZM491.552 957.115L489.141 956.828L493.948 916.495L496.24 916.76L491.552 957.104V957.115ZM479.219 955.516L476.818 955.156L482.823 914.99L485.104 915.328L479.229 955.516H479.219ZM466.984 953.557L464.469 953.115L471.797 913.156L473.943 913.536L466.984 953.557ZM454.76 951.219L452.255 950.693L460.781 910.979L462.917 911.422L454.76 951.208V951.219ZM442.609 948.531L440.12 947.927L449.844 908.49L451.958 909L442.599 948.531H442.609ZM430.531 945.469L428.12 944.818L438.932 905.667L441.094 906.255L430.542 945.479L430.531 945.469ZM418.573 942.052L416.125 941.302L428.177 902.516L430.281 903.161L418.573 942.052ZM406.646 938.255L404.271 937.453L417.437 899.031L419.562 899.75L406.646 938.266V938.255ZM394.891 934.125L392.49 933.229L406.849 895.234L408.901 896L394.891 934.125ZM383.219 929.635L380.891 928.682L396.323 891.109L398.401 891.953L383.213 929.625L383.219 929.635ZM371.734 924.813L369.432 923.792L385.974 886.693L388.016 887.589L371.745 924.813H371.734ZM360.391 919.635L358.078 918.526L375.792 881.974L377.76 882.917L360.391 919.635ZM349.198 914.13L346.927 912.953L365.708 876.948L367.651 877.943L349.198 914.13ZM338.177 908.286L335.948 907.057L355.786 871.615L357.708 872.688L338.167 908.286H338.177ZM327.328 902.125L325.182 900.849L346 865.969L347.943 867.115L327.328 902.115V902.125ZM316.719 895.667L314.604 894.328L336.411 860.063L338.302 861.255L316.719 895.667ZM306.24 888.849L304.245 887.505L326.963 853.844L328.896 855.146L306.229 888.849H306.24ZM296.021 881.771L294.016 880.328L317.807 847.406L319.646 848.724L296.021 881.771ZM286.005 874.385L284.047 872.88L308.802 840.677L310.604 842.052L286.016 874.385H286.005ZM276.198 866.688L274.333 865.172L299.958 833.656L301.766 835.125L276.198 866.688ZM266.667 858.745L264.771 857.109L291.411 826.448L293.099 827.906L266.656 858.745H266.667ZM257.333 850.49L255.63 848.938L283 818.927L284.703 820.479L257.333 850.49ZM248.266 841.979L246.51 840.271L274.87 811.193L276.505 812.781L248.266 841.979ZM239.463 833.214L237.75 831.458L266.953 803.219L268.542 804.854L239.463 833.214ZM230.911 824.193L229.24 822.375L259.281 795.042L260.807 796.703L230.911 824.203V824.193ZM222.651 814.943L221.01 813.042L251.859 786.63L253.312 788.313L222.646 814.953L222.651 814.943ZM214.625 805.396L213.062 803.474L244.682 777.99L246.104 779.75L214.615 805.406L214.625 805.396ZM206.917 795.677L205.401 793.693L237.771 769.151L239.13 770.922L206.927 795.677H206.917ZM199.479 785.698L198.036 783.693L231.115 760.12L232.427 761.953L199.479 785.708V785.698ZM192.375 775.552L190.969 773.474L224.724 750.891L225.963 752.729L192.365 775.552H192.375ZM185.536 765.156L184.213 763.068L218.615 741.474L219.818 743.38L185.526 765.146L185.536 765.156ZM179.031 754.594L177.771 752.469L212.792 731.891L213.937 733.833L179.031 754.594ZM172.838 743.839L171.63 741.661L207.26 722.151L208.328 724.104L172.828 743.839H172.838ZM166.969 732.917L165.833 730.698L202.021 712.25L203.036 714.224L166.969 732.917ZM161.427 721.802L160.375 719.604L197.057 702.167L198.036 704.219L161.427 721.802ZM156.224 710.557L155.229 708.302L192.427 691.995L193.333 694.042L156.213 710.547L156.224 710.557ZM151.344 699.135L150.443 696.901L188.083 681.646L188.953 683.776L151.354 699.146L151.344 699.135ZM146.807 687.578L145.943 685.25L184.047 671.182L184.833 673.302L146.807 687.578ZM142.615 675.87L141.802 673.474L180.333 660.63L181.036 662.719L142.604 675.87H142.615ZM138.76 664.016L138.042 661.641L176.922 649.901L177.578 652.057L138.76 664.016ZM135.266 652.073L134.609 649.661L173.838 639.109L174.427 641.271L135.276 652.083L135.266 652.073ZM132.135 640.026L131.552 637.594L171.073 628.224L171.599 630.396L132.135 640.016V640.026ZM129.365 627.901L128.844 625.443L168.635 617.266L169.088 619.438L129.365 627.901ZM126.953 615.688L126.516 613.24L166.521 606.208L166.917 608.422L126.953 615.688ZM124.911 603.417L124.547 600.974L164.745 595.099L165.078 597.344L124.917 603.417H124.911ZM123.229 591.078L122.943 588.641L163.286 583.958L163.552 586.219L123.229 591.078ZM121.917 578.708L121.693 576.229L162.167 572.813L162.359 575.047L121.906 578.708H121.917ZM120.974 566.333L120.823 563.823L161.38 561.604L161.51 563.813L120.974 566.333ZM120.391 553.927L120.318 551.438L160.917 550.359L160.984 552.604L120.38 553.927H120.391Z" fill="white"/>
<path d="M120.188 541.328V540.073H160.807V541.208L120.188 541.328Z" fill="white"/>
<path d="M541.12 160.901H539.979V120.281H541.24L541.12 160.901Z" fill="white"/>
<path d="M919.026 529.818L918.958 527.573L959.552 526.25L959.625 528.734L919.026 529.818ZM918.552 518.552L918.427 516.375L958.964 513.849L959.109 516.401L918.547 518.552H918.552ZM917.771 507.344L917.573 505.172L958.021 501.448L958.24 503.99L917.761 507.344H917.771ZM916.651 496.167L916.391 494L956.708 489.078L957.005 491.62L916.641 496.172L916.651 496.167ZM915.198 485.031L914.875 482.87L955.037 476.74L955.406 479.266L915.198 485.021V485.031ZM913.417 473.943L913.031 471.797L952.984 464.469L953.438 466.984L913.417 473.943ZM911.318 462.974L910.849 460.729L950.583 452.312L951.078 454.693L911.318 462.974ZM908.891 452.026L908.344 449.786L947.807 440.177L948.38 442.542L908.891 452.026ZM906.115 441.094L905.526 438.932L944.677 428.12L945.333 430.521L906.115 441.094ZM903.011 430.255L902.375 428.177L941.172 416.161C941.422 416.974 941.672 417.786 941.922 418.609L903.011 430.26V430.255ZM899.63 419.625L898.901 417.458L937.349 404.365L938.136 406.682L899.63 419.635V419.625ZM895.88 408.948L895.12 406.911L933.136 392.62C933.443 393.422 933.734 394.219 934.031 395.021L895.87 408.948H895.88ZM891.839 398.484L891.026 396.479L928.599 381.042L929.557 383.396L891.849 398.484H891.839ZM887.516 388.203L886.62 386.177L923.729 369.646L924.734 371.937L887.516 388.203ZM882.87 378L881.917 376.005L918.516 358.401L919.599 360.667L882.87 378.01V378ZM877.932 367.964L876.906 365.969L912.984 347.302L914.12 349.51L877.932 367.964ZM872.693 358.052L871.625 356.109L907.104 336.344L908.318 338.542L872.688 358.052H872.693ZM867.177 348.328L866.031 346.396L900.917 325.589L902.182 327.724L867.177 348.328ZM861.365 338.755L860.146 336.833L894.417 315.026L895.724 317.099L861.359 338.755H861.365ZM855.25 329.323L854 327.474L887.589 304.641L888.984 306.714L855.25 329.323ZM848.854 320.083L847.563 318.281L880.458 294.458L881.927 296.5L848.844 320.073L848.854 320.083ZM842.203 311.047L840.844 309.271L873.047 284.516L874.563 286.505L842.203 311.047ZM835.281 302.203L833.886 300.484L865.323 274.76L866.912 276.708L835.281 302.203ZM828.12 293.583L826.63 291.854L857.354 265.276L858.953 267.135L828.12 293.583ZM820.672 285.146L819.167 283.49L849.068 255.99L850.75 257.828L820.682 285.135L820.672 285.146ZM813.011 276.958L811.443 275.333L840.521 246.974L842.24 248.75L813.011 276.958ZM805.141 269.021L803.469 267.401L831.703 238.203L833.432 239.885L805.13 269.021H805.141ZM796.953 261.25L795.271 259.708L822.641 229.693L824.453 231.349L796.953 261.24V261.25ZM788.542 253.729L786.865 252.276L813.318 221.453L815.219 223.099L788.552 253.74L788.542 253.729ZM779.958 246.495L778.203 245.062L803.771 213.495L805.693 215.057L779.958 246.484V246.495ZM771.156 239.5L769.359 238.12L793.984 205.818L795.953 207.323L771.162 239.5H771.156ZM762.146 232.76L760.307 231.443L783.964 198.417L785.964 199.865L762.136 232.76H762.146ZM752.943 226.302L751.068 225.036L773.734 191.328L775.781 192.714L752.932 226.292L752.943 226.302ZM743.537 220.115L741.651 218.922L763.271 184.536L765.396 185.875L743.537 220.115ZM733.969 214.219L732.031 213.062L752.646 178.068L754.781 179.333L733.969 214.219ZM724.214 208.589L722.255 207.51L741.797 171.896L743.99 173.109L724.214 208.578V208.589ZM714.307 203.266L712.292 202.234L730.792 166.073L733 167.214L714.307 203.276V203.266ZM704.219 198.224L702.193 197.25L719.594 160.547L721.859 161.63L704.219 198.224ZM694.037 193.5L691.964 192.583L708.24 155.365L710.511 156.375L694.037 193.5ZM683.688 189.073L681.563 188.214L696.75 150.542L699.037 151.469L683.688 189.073ZM673.182 184.953L671.052 184.156L685.089 146.042L687.417 146.911L673.182 184.953ZM662.583 181.156L660.412 180.417L673.328 141.901L675.667 142.687L662.589 181.146L662.583 181.156ZM651.818 177.661L649.672 177.005L661.396 138.115L663.813 138.854L651.818 177.661ZM641.031 174.51L638.87 173.922L649.422 134.693L651.833 135.349L641.026 174.5L641.031 174.51ZM630.156 171.682L627.995 171.167L637.365 131.646L639.813 132.24L630.156 171.693V171.682ZM619.234 169.187L617.011 168.719L625.24 128.937L627.646 129.448L619.234 169.187ZM608.193 167.016L605.974 166.62L613.005 126.62L615.458 127.052L608.193 167.016ZM597.115 165.172L594.896 164.844L600.719 124.651L603.182 125.021L597.115 165.177V165.172ZM585.964 163.656L583.755 163.396L588.375 123.042L590.87 123.339L585.953 163.656H585.964ZM574.792 162.469L572.583 162.276L576 121.807L578.505 122.026L574.781 162.469H574.792ZM563.589 161.62L561.354 161.49L563.635 120.937L566.12 121.083L563.599 161.62H563.589ZM552.391 161.094L550.12 161.031L551.198 120.427L553.656 120.5L552.401 161.104L552.391 161.094Z" fill="white"/>
<path d="M959.787 540.073H919.167V539L959.776 538.76L959.787 540.073Z" fill="white"/>
</g>
<defs>
<clipPath id="clip0_149_16457">
<rect width="1080" height="1080" fill="white"/>
</clipPath>
</defs>
</svg>
