<svg width="1049" height="1863" viewBox="0 0 1049 1863" fill="none" xmlns="http://www.w3.org/2000/svg">
<g filter="url(#filter0_d_166_17766)">
<g filter="url(#filter1_d_166_17766)">
<path d="M122 355L385.673 500.926" stroke="#9ED5B7" stroke-width="22" stroke-linecap="round" stroke-linejoin="bevel"/>
<path d="M686 27L942 186" stroke="#9ED5B7" stroke-width="22" stroke-linecap="round" stroke-linejoin="bevel"/>
<path d="M123 354L387 205" stroke="#9ED5B7" stroke-width="22" stroke-linecap="round" stroke-linejoin="bevel"/>
<path d="M579.2 87.0173L683.799 27.9827" stroke="#9ED5B7" stroke-width="22" stroke-linecap="round" stroke-linejoin="bevel"/>
<path d="M465.275 154.776L524.725 121.224" stroke="#9ED5B7" stroke-width="22" stroke-linecap="round" stroke-linejoin="bevel"/>
<path d="M122 796L384.606 943.837" stroke="#9ED5B7" stroke-width="22" stroke-linecap="round" stroke-linejoin="bevel"/>
<path d="M373 930L373 941L395 941L395 930L373 930ZM395 500C395 493.925 390.075 489 384 489C377.925 489 373 493.925 373 500L395 500ZM395 930L395 500L373 500L373 930L395 930Z" fill="#9ED5B7"/>
<path d="M111 788L111 799L133 799L133 788L111 788ZM133 361C133 354.925 128.075 350 122 350C115.925 350 111 354.925 111 361L133 361ZM133 788L133 361L111 361L111 788L133 788Z" fill="#9ED5B7"/>
<path d="M942 624L942 193" stroke="#9ED5B7" stroke-width="22" stroke-linecap="round" stroke-linejoin="bevel"/>
<path d="M384.107 501.701L941 192" stroke="#9ED5B7" stroke-width="22" stroke-linecap="round"/>
<path d="M385.568 944.733L939.5 626" stroke="#9ED5B7" stroke-width="22" stroke-linecap="round"/>
</g>
<g filter="url(#filter2_d_166_17766)">
<path d="M297.457 1486.86L294.319 1497.4L315.405 1503.68L318.543 1493.14L297.457 1486.86ZM496.543 895.138C498.276 889.315 494.961 883.19 489.138 881.457C483.316 879.724 477.19 883.039 475.457 888.862L496.543 895.138ZM318.543 1493.14L496.543 895.138L475.457 888.862L297.457 1486.86L318.543 1493.14Z" fill="#9ED5B7"/>
<path d="M19.4917 1347.75L16.2396 1358.26L37.2562 1364.76L40.5083 1354.25L19.4917 1347.75ZM200.508 837.252C202.304 831.449 199.056 825.288 193.252 823.492C187.449 821.696 181.288 824.944 179.492 830.748L200.508 837.252ZM40.5083 1354.25L200.508 837.252L179.492 830.748L19.4917 1347.75L40.5083 1354.25Z" fill="#9ED5B7"/>
<path d="M292.935 1499.76L302.7 1504.83L312.829 1485.3L303.065 1480.24L292.935 1499.76ZM35.0646 1341.24C29.6717 1338.44 23.0324 1340.54 20.2353 1345.94C17.4382 1351.33 19.5426 1357.97 24.9355 1360.76L35.0646 1341.24ZM303.065 1480.24L35.0646 1341.24L24.9355 1360.76L292.935 1499.76L303.065 1480.24Z" fill="#9ED5B7"/>
<path d="M383.999 1696L31.5 1358" stroke="#9ED5B7" stroke-width="22" stroke-linecap="square" stroke-linejoin="bevel"/>
<path d="M404.036 1696.72L394.256 1691.69L384.185 1711.24L393.965 1716.28L404.036 1696.72ZM645.465 1845.78C650.866 1848.56 657.499 1846.44 660.28 1841.04C663.061 1835.63 660.937 1829 655.536 1826.22L645.465 1845.78ZM393.965 1716.28L645.465 1845.78L655.536 1826.22L404.036 1696.72L393.965 1716.28Z" fill="#9ED5B7"/>
<path d="M664 1421L664 1410L642 1410L642 1421L664 1421ZM642 1836C642 1842.08 646.925 1847 653 1847C659.075 1847 664 1842.08 664 1836L642 1836ZM642 1421L642 1836L664 1836L664 1421L642 1421Z" fill="#9ED5B7"/>
<path d="M1028.84 1106.91L1033.75 1097.06L1014.06 1087.25L1009.16 1097.09L1028.84 1106.91ZM643.156 1831.09C640.445 1836.53 642.655 1843.13 648.091 1845.84C653.528 1848.56 660.133 1846.35 662.844 1840.91L643.156 1831.09ZM1009.16 1097.09L643.156 1831.09L662.844 1840.91L1028.84 1106.91L1009.16 1097.09Z" fill="#9ED5B7"/>
<path d="M1009.01 1096.6L1013.62 1106.59L1033.59 1097.38L1028.99 1087.4L1009.01 1096.6ZM845.99 690.395C843.447 684.878 836.912 682.467 831.395 685.01C825.878 687.553 823.467 694.088 826.01 699.605L845.99 690.395ZM1028.99 1087.4L845.99 690.395L826.01 699.605L1009.01 1096.6L1028.99 1087.4Z" fill="#9ED5B7"/>
<path d="M643.357 1838.91L651.269 1846.55L666.554 1830.73L658.643 1823.09L643.357 1838.91ZM305.643 1482.09C301.273 1477.87 294.309 1477.99 290.089 1482.36C285.868 1486.73 285.988 1493.69 290.357 1497.91L305.643 1482.09ZM658.643 1823.09L305.643 1482.09L290.357 1497.91L643.357 1838.91L658.643 1823.09Z" fill="#9ED5B7"/>
</g>
<g filter="url(#filter3_d_166_17766)">
<path d="M720.321 1327.41C713.344 1354.8 695.365 1378.01 674.064 1393.1C652.491 1408.39 629.295 1414.19 612.248 1409.84C595.387 1405.55 585.877 1394.81 581.736 1377.85C577.379 1360.01 579.155 1335.45 586.693 1305.86C593.793 1277.99 611.331 1251.63 632.078 1233.62C653.25 1215.23 675.223 1207.56 691.317 1211.66C707.407 1215.76 718.341 1228.72 723.569 1249.6C728.841 1270.66 727.739 1298.29 720.321 1327.41Z" stroke="#9ED5B7" stroke-width="22"/>
</g>
</g>
<defs>
<filter id="filter0_d_166_17766" x="0.947266" y="0.998535" width="1047.81" height="1861" filterUnits="userSpaceOnUse" color-interpolation-filters="sRGB">
<feFlood flood-opacity="0" result="BackgroundImageFix"/>
<feColorMatrix in="SourceAlpha" type="matrix" values="0 0 0 0 0 0 0 0 0 0 0 0 0 0 0 0 0 0 127 0" result="hardAlpha"/>
<feOffset/>
<feGaussianBlur stdDeviation="7.5"/>
<feColorMatrix type="matrix" values="0 0 0 0 0.619608 0 0 0 0 0.835294 0 0 0 0 0.717647 0 0 0 0.8 0"/>
<feBlend mode="normal" in2="BackgroundImageFix" result="effect1_dropShadow_166_17766"/>
<feBlend mode="normal" in="SourceGraphic" in2="effect1_dropShadow_166_17766" result="shape"/>
</filter>
<filter id="filter1_d_166_17766" x="106.998" y="15.9985" width="850.004" height="947.736" filterUnits="userSpaceOnUse" color-interpolation-filters="sRGB">
<feFlood flood-opacity="0" result="BackgroundImageFix"/>
<feColorMatrix in="SourceAlpha" type="matrix" values="0 0 0 0 0 0 0 0 0 0 0 0 0 0 0 0 0 0 127 0" result="hardAlpha"/>
<feOffset dy="4"/>
<feGaussianBlur stdDeviation="2"/>
<feColorMatrix type="matrix" values="0 0 0 0 0.619608 0 0 0 0 0.835294 0 0 0 0 0.717647 0 0 0 0.83 0"/>
<feBlend mode="normal" in2="BackgroundImageFix" result="effect1_dropShadow_166_17766"/>
<feBlend mode="normal" in="SourceGraphic" in2="effect1_dropShadow_166_17766" result="shape"/>
</filter>
<filter id="filter2_d_166_17766" x="11.9473" y="683.997" width="1025.81" height="1171.01" filterUnits="userSpaceOnUse" color-interpolation-filters="sRGB">
<feFlood flood-opacity="0" result="BackgroundImageFix"/>
<feColorMatrix in="SourceAlpha" type="matrix" values="0 0 0 0 0 0 0 0 0 0 0 0 0 0 0 0 0 0 127 0" result="hardAlpha"/>
<feOffset dy="4"/>
<feGaussianBlur stdDeviation="2"/>
<feColorMatrix type="matrix" values="0 0 0 0 0.619608 0 0 0 0 0.835294 0 0 0 0 0.717647 0 0 0 0.83 0"/>
<feBlend mode="normal" in2="BackgroundImageFix" result="effect1_dropShadow_166_17766"/>
<feBlend mode="normal" in="SourceGraphic" in2="effect1_dropShadow_166_17766" result="shape"/>
</filter>
<filter id="filter3_d_166_17766" x="564.398" y="1199.58" width="177.445" height="230.676" filterUnits="userSpaceOnUse" color-interpolation-filters="sRGB">
<feFlood flood-opacity="0" result="BackgroundImageFix"/>
<feColorMatrix in="SourceAlpha" type="matrix" values="0 0 0 0 0 0 0 0 0 0 0 0 0 0 0 0 0 0 127 0" result="hardAlpha"/>
<feOffset dy="4"/>
<feGaussianBlur stdDeviation="2"/>
<feColorMatrix type="matrix" values="0 0 0 0 0.619608 0 0 0 0 0.835294 0 0 0 0 0.717647 0 0 0 0.83 0"/>
<feBlend mode="normal" in2="BackgroundImageFix" result="effect1_dropShadow_166_17766"/>
<feBlend mode="normal" in="SourceGraphic" in2="effect1_dropShadow_166_17766" result="shape"/>
</filter>
</defs>
</svg>
