<svg width="804" height="754" viewBox="0 0 804 754" fill="none" xmlns="http://www.w3.org/2000/svg">
<g clip-path="url(#clip0_115_4489)">
<path d="M110.902 532.858C112.753 535.858 114.562 538.882 116.454 541.859L122.434 550.609C124.369 553.562 126.53 556.381 128.682 559.201C130.851 562.005 132.903 564.887 135.173 567.629C139.754 573.064 144.184 578.616 149.15 583.753L152.777 587.688C153.966 589.008 155.197 590.303 156.504 591.537L164.15 599.061C174.636 608.816 185.498 618.256 197.282 626.637L201.637 629.849C203.094 630.917 204.635 631.876 206.126 632.897L215.154 638.921L224.475 644.544L229.14 647.348L233.939 649.948L243.562 655.108L253.428 659.844C255.077 660.622 256.702 661.462 258.377 662.185L263.427 664.321C266.803 665.727 270.136 667.227 273.544 668.555C280.437 671.044 287.229 673.809 294.281 675.875C297.79 676.959 301.257 678.168 304.808 679.142L315.47 681.977C319.004 682.998 322.622 683.713 326.223 684.499C329.824 685.245 333.401 686.132 337.035 686.761C344.322 687.923 351.558 689.376 358.911 690.091C362.579 690.499 366.239 691.017 369.907 691.347L380.962 692.133C382.805 692.251 384.647 692.431 386.498 692.494L392.034 692.628L403.114 692.887V678.545L392.528 678.286L387.235 678.16C385.476 678.097 383.726 677.925 381.959 677.815L371.406 677.068C367.906 676.746 364.405 676.252 360.912 675.859C353.886 675.183 346.993 673.778 340.034 672.686C336.566 672.081 333.158 671.233 329.716 670.526C326.282 669.772 322.831 669.104 319.465 668.123L309.289 665.413C305.905 664.486 302.597 663.324 299.247 662.295C292.514 660.323 286.04 657.677 279.457 655.312C276.208 654.04 273.025 652.611 269.801 651.268L264.977 649.225C263.377 648.542 261.836 647.741 260.253 646.995L250.84 642.471L241.661 637.546L237.071 635.072L232.624 632.394L223.721 627.03L215.104 621.272C213.68 620.299 212.197 619.395 210.816 618.374L206.662 615.303C195.414 607.308 185.037 598.283 175.029 588.976L167.726 581.797C166.487 580.619 165.314 579.386 164.175 578.122L160.716 574.367C155.976 569.451 151.755 564.149 147.375 558.965C145.214 556.35 143.263 553.593 141.177 550.923C139.126 548.229 137.057 545.55 135.214 542.731L129.511 534.374C127.702 531.539 125.985 528.648 124.21 525.789L110.902 532.85V532.858Z" fill="white"/>
<path d="M403.139 77.7248V63.391C354.112 63.3988 305.135 73.6092 260.747 93.1111C238.52 102.787 217.524 114.922 198.161 129.005C178.781 143.071 161.026 159.094 145.29 176.711C113.875 212.015 90.9358 253.855 78.4571 298.301C66.0453 342.787 64.3536 389.802 73.1055 435.011L88.1386 432.443C87.5691 429.317 86.8991 426.198 86.3966 423.073L85.1236 413.632L84.4787 408.919L83.323 394.688C83.1136 391.522 83.122 388.349 83.0131 385.176L82.8875 380.409L82.8205 378.029L82.8875 375.649C83.122 369.311 83.055 362.949 83.7333 356.634L84.5038 347.146L85.7852 337.706L86.4217 332.985C86.6478 331.414 86.9996 329.859 87.276 328.304L89.0598 318.934C89.6712 315.816 90.5506 312.745 91.2708 309.651C92.0665 306.572 92.6778 303.446 93.6912 300.422C95.5505 294.327 97.2757 288.185 99.5788 282.224C103.724 270.152 109.143 258.504 114.863 247.021L119.486 238.562C120.273 237.157 120.994 235.719 121.823 234.345L124.352 230.221L129.427 221.982L134.905 213.979L137.643 209.973L140.591 206.101L146.47 198.341L152.743 190.864L155.876 187.126L159.2 183.528L165.833 176.334L176.336 165.99C177.533 164.867 178.773 163.799 179.996 162.699L187.332 156.125C188.739 152.732 190.238 149.371 192.215 144.964L195.607 142.215L199.132 139.616L206.176 134.416C208.487 132.625 211.017 131.11 213.42 129.452L220.732 124.575L228.286 120.035C230.823 118.559 233.269 116.917 235.89 115.574L243.662 111.388L247.548 109.291L251.535 107.366C255.89 107.304 260.161 107.264 264.399 107.28C307.538 87.9274 355.242 77.7641 403.131 77.7248H403.139Z" fill="white"/>
<path d="M59.2029 443.674C67.67 482.646 83.7416 520.134 106.404 553.727C111.103 555.407 115.215 556.829 119.076 558.101C123.045 559.303 126.714 560.363 130.357 561.392C137.517 563.497 144.988 565.162 154.167 567.071L146.772 558.258L139.829 549.124C137.442 546.124 135.382 542.919 133.213 539.785C131.06 536.636 128.858 533.526 126.94 530.235C118.716 517.417 111.865 503.868 105.868 490.029C104.445 486.542 102.837 483.11 101.572 479.568L97.7446 468.949C96.4967 465.399 95.5252 461.77 94.3946 458.189C93.8586 456.39 93.2807 454.599 92.7782 452.785L91.4382 447.326L90.0899 441.86C89.6292 440.038 89.177 438.223 88.8671 436.378L86.765 425.335C86.1034 421.651 85.7265 417.928 85.1821 414.221L84.4284 408.652L83.9845 403.06C81.271 406.736 78.859 410.09 76.8406 413.271C74.7552 416.467 72.829 419.515 70.8944 422.617C68.9095 425.727 67.1424 428.861 65.2747 432.278C63.3904 435.702 61.3971 439.417 59.1777 443.682L59.2029 443.674Z" fill="white"/>
<path d="M113.783 206.313C100.357 226.208 89.0596 247.414 80.6846 269.641C82.5773 275.021 84.0848 279.114 85.6174 283.135C86.3544 285.138 87.2087 287.156 88.1551 289.293C89.0847 291.397 90.0813 293.644 91.2036 296.165C101.739 260.829 119.092 227.221 142.484 197.744C136.948 199.174 132.559 200.391 128.129 201.656C125.884 202.268 123.724 202.96 121.412 203.737C119.076 204.522 116.58 205.371 113.783 206.313Z" fill="white"/>
<path d="M695.36 223.404C693.509 220.404 691.7 217.372 689.807 214.403L683.827 205.646C681.893 202.692 679.732 199.881 677.579 197.061C675.41 194.257 673.358 191.375 671.097 188.626C666.508 183.198 662.077 177.646 657.119 172.501L653.485 168.574C652.295 167.247 651.064 165.951 649.766 164.718L642.111 157.201C631.626 147.438 620.763 137.998 608.988 129.617L604.633 126.405C603.176 125.345 601.635 124.386 600.136 123.365L591.108 117.341L581.786 111.71L577.121 108.906L572.322 106.314L562.7 101.154L552.842 96.4099C551.192 95.6402 549.568 94.7998 547.884 94.0772L542.834 91.933C539.459 90.5271 536.126 89.0348 532.717 87.6996C525.824 85.2099 519.041 82.453 511.981 80.3795C508.471 79.3035 505.004 78.094 501.453 77.1122L490.792 74.2769C487.258 73.2558 483.64 72.5489 480.038 71.7635C476.437 71.0095 472.861 70.1299 469.226 69.4937C461.94 68.3391 454.704 66.8861 447.351 66.1714C443.682 65.7551 440.023 65.2367 436.354 64.9068L425.299 64.1214C423.457 64.0036 421.614 63.8308 419.772 63.7601L414.228 63.6345L403.147 63.3674V77.717L413.733 77.9762L419.026 78.094C420.785 78.1647 422.544 78.3375 424.303 78.4474L434.855 79.1936C438.364 79.5077 441.857 80.0025 445.349 80.4031C452.376 81.0786 459.277 82.4766 466.228 83.5762C469.695 84.1731 473.104 85.0214 476.546 85.7361C479.98 86.4901 483.43 87.1577 486.805 88.1316L496.973 90.8413C500.364 91.7759 503.664 92.9305 507.014 93.9594C513.748 95.9308 520.222 98.5776 526.804 100.95C530.054 102.214 533.236 103.651 536.461 104.995L541.285 107.029C542.884 107.712 544.425 108.521 546.008 109.259L555.43 113.783L564.601 118.716L569.19 121.182L573.637 123.86L582.54 129.225L591.158 134.982C592.582 135.956 594.064 136.867 595.446 137.888L599.6 140.959C610.847 148.946 621.224 157.971 631.232 167.286L638.535 174.465C639.775 175.635 640.947 176.876 642.086 178.14L645.545 181.895C650.285 186.804 654.506 192.105 658.895 197.297C661.047 199.904 663.007 202.669 665.084 205.339C667.136 208.025 669.204 210.704 671.047 213.531L676.759 221.888C678.568 224.723 680.276 227.614 682.052 230.473L695.36 223.404Z" fill="white"/>
<path d="M403.139 678.529V692.855C452.158 692.847 501.135 682.645 545.523 663.143C567.75 653.459 588.746 641.332 608.109 627.249C627.489 613.183 645.244 597.152 660.98 579.535C692.395 544.239 715.334 502.392 727.813 457.945C740.225 413.467 741.916 366.444 733.164 321.235L718.131 323.812C718.701 326.93 719.371 330.048 719.873 333.182L721.146 342.614L721.791 347.335L722.176 352.071L722.947 361.559C723.156 364.732 723.148 367.905 723.257 371.078L723.391 375.838L723.449 378.217L723.382 380.597C723.148 386.943 723.215 393.305 722.537 399.62L721.766 409.108L720.485 418.549L719.848 423.269C719.622 424.832 719.27 426.387 718.994 427.95L717.21 437.32C716.599 440.43 715.728 443.501 714.999 446.604C714.203 449.675 713.592 452.808 712.579 455.832C710.719 461.927 708.994 468.061 706.691 474.023C702.545 486.102 697.127 497.75 691.407 509.225L686.784 517.692C685.996 519.098 685.276 520.527 684.447 521.909L681.918 526.033L676.843 534.272L671.365 542.275L668.627 546.273L665.679 550.153L659.799 557.905L653.527 565.382L650.394 569.129L647.069 572.726L640.436 579.92L633.435 586.816L629.934 590.256C628.737 591.379 627.497 592.456 626.274 593.555L618.938 600.121C617.531 603.514 616.032 606.876 614.055 611.282L610.663 614.039L607.137 616.638L600.094 621.838C597.783 623.621 595.253 625.137 592.85 626.802L585.538 631.671L577.984 636.219C575.446 637.696 573.001 639.329 570.38 640.672L558.722 646.963L554.735 648.888C550.38 648.943 546.109 648.982 541.871 648.974C498.731 668.327 451.027 678.49 403.139 678.529Z" fill="white"/>
<path d="M747.067 312.588C738.6 273.616 722.52 236.12 699.865 202.528C695.167 200.855 691.046 199.425 687.185 198.161C683.216 196.959 679.547 195.891 675.913 194.87C668.752 192.765 661.282 191.092 652.094 189.183L659.489 198.004L666.441 207.13C668.827 210.13 670.879 213.335 673.048 216.469C675.201 219.618 677.403 222.736 679.321 226.019C687.546 238.837 694.396 252.394 700.401 266.233C701.817 269.72 703.425 273.144 704.689 276.694L708.525 287.313C709.764 290.855 710.736 294.492 711.867 298.073C712.403 299.872 712.98 301.655 713.483 303.469L714.823 308.936L716.171 314.402C716.632 316.217 717.084 318.039 717.394 319.884L719.496 330.92C720.158 334.603 720.535 338.334 721.079 342.033L721.833 347.602L722.277 353.194C724.99 349.526 727.402 346.172 729.421 342.984C731.506 339.787 733.441 336.747 735.367 333.645C737.36 330.535 739.119 327.401 740.987 323.977C742.871 320.552 744.873 316.845 747.084 312.572L747.067 312.588Z" fill="white"/>
<path d="M692.478 549.941C705.904 530.046 717.201 508.832 725.576 486.613C723.692 481.233 722.176 477.141 720.644 473.111C719.907 471.116 719.052 469.098 718.114 466.962C717.176 464.849 716.18 462.603 715.057 460.081C704.522 495.425 687.169 529.033 663.777 558.51C669.313 557.072 673.71 555.863 678.14 554.598C680.377 553.986 682.537 553.287 684.849 552.517C687.194 551.724 689.681 550.883 692.478 549.941Z" fill="white"/>
<path d="M402.502 754.039C395.325 754.016 388.977 753.882 383.072 753.623L381.305 753.552L382.461 730.194L384.228 730.273C389.73 730.508 395.878 730.642 402.494 730.657C403.306 730.657 404.102 730.657 404.906 730.65L406.681 730.634L406.891 754.016L405.107 754.024C404.236 754.031 403.365 754.039 402.494 754.039H402.502ZM385.024 750.371C390.367 750.576 396.112 750.686 402.511 750.701C402.779 750.701 403.047 750.701 403.306 750.701L403.164 734.003H402.494C396.523 733.988 390.936 733.885 385.844 733.689L385.024 750.371Z" fill="white"/>
<path d="M415.668 23.6725L413.884 23.6175C407.025 23.4211 400.057 23.3897 393.198 23.5389L391.414 23.5782L390.845 0.204204L392.62 0.164935C399.898 0.0157055 407.318 0.0392679 414.646 0.25133L416.43 0.30631L415.66 23.6725H415.668ZM401.967 20.1067C405.384 20.1067 408.809 20.1459 412.226 20.2323L412.77 3.53437C406.682 3.37729 400.543 3.36158 394.479 3.46368L394.89 20.1695C397.243 20.1302 399.597 20.1067 401.958 20.1067H401.967Z" fill="white"/>
<path d="M0.0753749 384.571L0.05025 382.906C0.01675 380.951 0 379.003 0 377.055C0 372.146 0.1005 367.159 0.3015 362.25L0.3685 360.585L25.2757 361.488L25.2087 363.153C25.0161 367.771 24.924 372.46 24.924 377.055C24.924 378.893 24.9324 380.731 24.9743 382.561L24.9994 384.226L0.067 384.579L0.0753749 384.571ZM3.79387 364.041C3.63475 368.368 3.55937 372.735 3.55937 377.055C3.55937 378.437 3.55937 379.812 3.5845 381.186L21.3981 380.935C21.3897 379.647 21.3814 378.351 21.3814 377.055C21.3814 372.963 21.4567 368.808 21.6075 364.685L3.80225 364.041H3.79387Z" fill="white"/>
<path d="M28.7932 326.191L4.13721 322.751L4.40521 321.102C13.5842 263.232 37.5367 207.342 73.6748 159.471L74.6966 158.112L87.3512 166.508C103.038 145.946 121.136 126.821 141.177 109.628L130.725 98.8211L132.049 97.698C159.359 74.4811 189.87 54.9006 222.75 39.5143L224.341 38.7682L235.471 59.6917L233.88 60.4378C220.271 66.8075 206.762 74.1512 193.705 82.2802L202.34 94.3757L200.866 95.3103C152.031 125.957 111.555 167.647 83.8086 215.856L82.9627 217.325L69.3701 210.445C63.1642 221.354 57.5195 232.64 52.5866 244.021L66.9832 249.401L66.3216 250.956C63.784 256.91 61.3971 263.028 59.2112 269.139L58.6501 270.717L43.9185 266.099C37.1766 285.2 32.1683 304.859 29.0528 324.55L28.7848 326.199L28.7932 326.191ZM8.18233 319.939L25.8033 322.398C29.0612 302.519 34.2118 282.695 41.1128 263.452L41.6823 261.866L56.4223 266.484C58.2732 261.371 60.2748 256.266 62.3686 251.255L47.972 245.867L48.6336 244.32C53.9936 231.776 60.2078 219.359 67.1005 207.389L67.9463 205.921L81.539 212.801C109.252 165.228 149.268 124.017 197.424 93.4646L188.781 81.3613L190.263 80.4345C203.395 72.1719 216.996 64.6948 230.714 58.1994L222.767 43.2529C191.31 58.1365 162.056 76.9001 135.775 99.0567L146.227 109.864L144.904 110.987C124.084 128.675 105.349 148.467 89.2356 169.799L88.2055 171.158L75.5676 162.77C40.6438 209.447 17.3865 263.727 8.18233 319.939Z" fill="white"/>
<path d="M803.288 399.369L778.389 398.112L778.49 396.447C778.858 390.046 779.043 383.519 779.043 377.055C779.043 375.453 779.009 373.843 778.976 372.24V372.185L763.574 372.437L763.54 370.772C762.937 338.46 757.368 306.422 747 275.54L746.464 273.946L770.24 266.924L770.776 268.518C781.187 299.511 787.066 331.674 788.272 364.135L803.724 363.695L803.782 365.36C803.908 369.224 803.975 373.159 803.975 377.055C803.975 383.912 803.774 390.863 803.38 397.711L803.288 399.369ZM782.133 394.963L799.921 395.858C800.248 389.606 800.416 383.291 800.416 377.047C800.416 373.741 800.365 370.41 800.282 367.127L784.838 367.559L784.779 365.894C783.741 333.731 778.071 301.844 767.921 271.102L750.928 276.121C760.886 306.289 766.313 337.533 767.066 369.036L782.468 368.785L782.535 372.17C782.568 373.803 782.61 375.429 782.61 377.055C782.61 383.024 782.451 389.04 782.141 394.963H782.133Z" fill="white"/>
<path d="M473.38 733.336L468.657 710.386L470.407 710.072C504.2 703.945 536.905 693.303 567.624 678.435L569.207 677.673L576.342 690.64C600.638 678.734 623.653 664.243 644.791 647.537L634.783 636.486L636.14 635.41C680.896 599.791 716.004 554.041 737.678 503.107L738.34 501.559L752.712 506.932C757.544 495.457 761.782 483.66 765.291 471.816L750.3 467.991L750.769 466.388C752.569 460.207 754.194 453.869 755.634 447.554L756.003 445.92L771.22 448.952C772.368 443.831 773.289 439.252 774.026 435.003L774.319 433.354L798.916 437.155L798.632 438.804C788.49 496.509 763.607 552.046 726.674 599.399L725.618 600.75L713.073 592.134C696.984 612.57 678.593 631.436 658.35 648.252L668.618 659.208L667.287 660.308C639.599 683.132 608.754 702.265 575.631 717.164L574.023 717.887L567.264 704.668C537.834 717.753 506.855 727.296 475.147 733.037L473.405 733.351L473.38 733.336ZM472.819 713.025L476.194 729.424C507.567 723.597 538.211 714.007 567.306 700.929L568.905 700.207L575.672 713.418C607.372 698.989 636.927 680.658 663.576 658.886L653.309 647.93L654.657 646.83C675.67 629.535 694.706 610.01 711.23 588.803L712.285 587.452L724.831 596.061C760.509 549.87 784.679 495.928 794.804 439.88L777.225 437.163C776.446 441.451 775.483 446.085 774.319 451.261L773.942 452.887L758.725 449.855C757.502 455.141 756.129 460.435 754.655 465.626L769.654 469.459L769.185 471.069C765.383 484.107 760.726 497.106 755.341 509.704L754.68 511.251L740.308 505.879C718.6 556.185 683.886 601.409 639.791 636.863L649.791 647.922L648.443 648.998C626.274 666.685 602.029 681.946 576.393 694.371L574.81 695.141L567.674 682.158C537.642 696.523 505.758 706.899 472.827 713.025H472.819Z" fill="white"/>
<path d="M49.6136 525.939L48.8849 524.423C33.8434 492.786 23.7348 459.398 18.8522 425.193L18.6177 423.536L43.3239 420.434L43.5584 422.083C48.1312 454.081 57.5866 485.317 71.6566 514.903L72.3768 516.427L49.6136 525.946V525.939ZM22.6126 426.395C27.4617 459.17 37.1432 491.152 51.4142 521.532L67.6784 514.731C54.1026 485.812 44.8817 455.361 40.2587 424.18L22.6042 426.395H22.6126Z" fill="white"/>
<path d="M272.489 60.4535L263.645 38.5875L265.312 37.9985C299.859 25.7145 335.988 18.1745 372.713 15.567L374.488 15.4413L376.373 38.7603L374.597 38.8781C340.26 41.3129 306.458 48.3738 274.147 59.8566L272.489 60.4457V60.4535ZM268.235 40.5354L274.549 56.1573C306.115 45.0986 339.062 38.2184 372.554 35.6972L371.214 19.0385C336.022 21.6854 301.4 28.9112 268.235 40.5354Z" fill="white"/>
<path d="M340.996 749.727L339.246 749.468C277.623 740.404 218.21 717.51 167.441 683.242L166.001 682.268L175.062 670.455C153.22 655.564 132.97 638.45 114.821 619.545L103.213 629.26L102.032 628.019C77.4853 602.234 56.8493 573.464 40.7023 542.503L39.915 541.003L62.3098 530.73L63.0887 532.222C73.3899 551.967 85.8519 571.021 100.14 588.905L112.501 580.148L113.573 581.475C148.983 625.443 195.665 660.944 248.612 684.145L250.22 684.852L243.687 697.968C255.63 703.152 267.941 707.786 280.345 711.76L285.261 697.976L286.944 698.502C293.426 700.537 300.068 702.422 306.709 704.11L308.418 704.55L304.331 718.625C317.262 721.876 330.285 724.484 343.098 726.361L344.849 726.62L340.988 749.72L340.996 749.727ZM170.959 681.506C220.48 714.604 278.175 736.847 338.032 745.91L340.795 729.409C327.856 727.437 314.707 724.759 301.676 721.413L299.967 720.973L304.054 706.906C298.493 705.461 292.941 703.883 287.497 702.202L282.572 716.002L280.881 715.467C267.229 711.163 253.653 706.058 240.547 700.293L238.939 699.586L245.471 686.462C193.211 663.261 147.048 628.168 111.798 584.829L99.4362 593.579L98.3642 592.251C83.8503 574.273 71.1705 555.085 60.6683 535.191L44.6637 542.534C60.283 572.145 80.0732 599.728 103.49 624.548L115.097 614.832L116.278 616.073C134.946 635.708 155.917 653.412 178.572 668.719L180.02 669.693L170.959 681.506Z" fill="white"/>
<path d="M739.094 218.448L738.29 216.963C735.116 211.112 731.581 205.057 727.762 198.938L714.371 206.345L713.466 204.907C683.626 157.452 641.559 117.161 591.836 88.3908L590.32 87.519L598.436 75.1879C587.272 68.8025 575.589 62.8805 563.646 57.571L557.097 70.6953L555.489 69.9885C549.274 67.2631 542.909 64.6791 536.544 62.2914L534.895 61.6709L540.64 48.1932C512.919 37.9121 484.15 30.7491 455.098 26.9162L453.339 26.6806L456.814 3.53437L458.582 3.77C520.364 11.9305 580.145 33.9614 631.458 67.4751L632.916 68.4255L624.055 80.356C646.165 94.9412 666.7 111.757 685.125 130.387L696.566 120.514L697.772 121.74C722.737 147.171 743.842 175.627 760.509 206.353L761.313 207.837L739.094 218.44V218.448ZM729.01 194.367L729.923 195.804C733.792 201.954 737.402 208.057 740.643 213.963L756.522 206.392C740.409 177.001 720.175 149.716 696.356 125.243L684.924 135.107L683.718 133.882C664.749 114.529 643.502 97.1246 620.562 82.1389L619.105 81.1885L627.958 69.2659C577.917 36.8989 519.853 15.512 459.838 7.31223L457.35 23.8531C486.663 27.8587 515.682 35.2181 543.605 45.7191L545.263 46.3396L539.518 59.8173C544.836 61.8437 550.162 64.0036 555.388 66.2577L561.937 53.1256L563.554 53.8325C576.711 59.621 589.583 66.1399 601.819 73.2165L603.327 74.0883L595.22 86.4272C644.28 115.119 685.854 154.947 715.627 201.774L729.027 194.359L729.01 194.367Z" fill="white"/>
<path d="M401.983 670.133H401.012L401.188 641.772L401.983 641.78V670.133Z" fill="white"/>
<path d="M393.642 670.031L391.791 669.984L392.779 641.638L394.446 641.685L393.642 670.031ZM384.388 669.678L382.587 669.583L384.379 641.277L386.088 641.371L384.388 669.686V669.678ZM375.15 669.073L373.349 668.924L376.029 640.672L377.738 640.814L375.15 669.073ZM365.937 668.209L364.137 668.005L367.713 639.848L369.421 640.036L365.937 668.201V668.209ZM356.75 667.094L354.966 666.842L359.43 638.795L361.13 639.039L356.758 667.094H356.75ZM347.646 665.727L345.77 665.413L351.231 637.523L352.822 637.782L347.646 665.727ZM338.543 664.093L336.675 663.724L343.032 635.999L344.615 636.305L338.543 664.086V664.093ZM329.498 662.216L327.647 661.792L334.883 634.263L336.457 634.617L329.489 662.216H329.498ZM320.503 660.08L318.711 659.624L326.759 632.284L328.367 632.7L320.511 660.088L320.503 660.08ZM311.609 657.692L309.783 657.166L318.753 630.085L320.319 630.54L311.609 657.692ZM302.723 655.038L300.956 654.48L310.763 627.658L312.337 628.161L302.723 655.045V655.038ZM293.971 652.155L292.187 651.535L302.874 625.003L304.406 625.537L293.971 652.155ZM285.286 649.021L283.553 648.354L295.043 622.129L296.592 622.718L285.278 649.013L285.286 649.021ZM276.735 645.652L275.027 644.945L287.338 619.042L288.854 619.67L276.744 645.652H276.735ZM268.285 642.039L266.568 641.269L279.759 615.751L281.224 616.403L268.285 642.039ZM259.96 638.198L258.268 637.381L272.255 612.24L273.695 612.931L259.96 638.198ZM251.753 634.122L250.094 633.266L264.86 608.517L266.292 609.263L251.744 634.122H251.753ZM243.679 629.818L242.08 628.93L257.582 604.574L259.022 605.376L243.679 629.81V629.818ZM235.782 625.309L234.207 624.375L250.438 600.451L251.845 601.284L235.782 625.309ZM227.976 620.55L226.494 619.615L243.411 596.108L244.843 597.019L227.976 620.55ZM220.372 615.602L218.881 614.596L236.594 591.615L237.959 592.534L220.372 615.602ZM212.918 610.449L211.452 609.397L229.886 586.918L231.226 587.877L212.918 610.449ZM205.615 605.077L204.225 604.017L223.303 582.017L224.651 583.038L205.615 605.077ZM198.513 599.532L197.106 598.385L216.938 576.983L218.194 578.004L198.513 599.532ZM191.57 593.767L190.305 592.683L210.682 571.728L211.946 572.812L191.57 593.767ZM184.82 587.829L183.513 586.636L204.627 566.333L205.841 567.44L184.82 587.829ZM178.262 581.703L176.989 580.478L198.731 560.764L199.911 561.911L178.262 581.703ZM171.905 575.412L170.658 574.14L193.019 555.054L194.158 556.216L171.905 575.412ZM165.75 568.948L164.527 567.621L187.5 549.187L188.58 550.357L165.75 568.956V568.948ZM159.778 562.288L158.614 560.945L182.148 543.155L183.212 544.38L159.77 562.296L159.778 562.288ZM154.042 555.502L152.911 554.111L177.006 536.982L178.019 538.215L154.042 555.502ZM148.497 548.535L147.425 547.137L172.056 530.675L173.028 531.955L148.497 548.543V548.535ZM143.213 541.451L142.166 539.998L167.291 524.234L168.212 525.514L143.204 541.451H143.213ZM138.121 534.193L137.141 532.732L162.743 517.66L163.639 518.988L138.112 534.185L138.121 534.193ZM133.28 526.818L132.342 525.334L158.413 510.969L159.268 512.327L133.28 526.818ZM128.665 519.31L127.769 517.786L154.293 504.167L155.088 505.533L128.665 519.31ZM124.302 511.683L123.456 510.136L150.39 497.255L151.152 498.637L124.302 511.683ZM120.173 503.923L119.386 502.392L146.697 490.218L147.425 491.647L120.173 503.923ZM116.304 496.077L115.558 494.498L143.255 483.11L143.925 484.547L116.295 496.069L116.304 496.077ZM112.669 488.097L111.991 486.542L140.022 475.892L140.667 477.376L112.677 488.105L112.669 488.097ZM109.294 480.031L108.641 478.405L137.015 468.587L137.601 470.064L109.294 480.031ZM106.17 471.855L105.567 470.182L134.251 461.22L134.771 462.673L106.162 471.855H106.17ZM103.297 463.576L102.761 461.919L131.705 453.727L132.2 455.235L103.297 463.576ZM100.701 455.243L100.215 453.562L129.411 446.195L129.855 447.703L100.71 455.251L100.701 455.243ZM98.3646 446.831L97.9374 445.135L127.359 438.592L127.744 440.108L98.3646 446.824V446.831ZM96.3043 438.372L95.9191 436.652L125.541 430.942L125.876 432.458L96.3043 438.372ZM94.5121 429.843L94.1854 428.131L123.967 423.222L124.26 424.769L94.5121 429.843ZM92.9878 421.274L92.7198 419.57L122.644 415.47L122.895 417.033L92.9962 421.274H92.9878ZM91.7399 412.658L91.5222 410.961L121.555 407.686L121.756 409.265L91.7399 412.658ZM90.7601 404.026L90.5926 402.298L120.726 399.911L120.868 401.466L90.7517 404.026H90.7601ZM90.0566 395.387L89.9477 393.627L120.14 392.08L120.232 393.627L90.0566 395.387ZM89.6211 386.723L89.5708 384.988L119.796 384.234L119.846 385.797L89.6211 386.723Z" fill="white"/>
<path d="M89.4702 377.927V377.055H119.712V377.848L89.4702 377.927Z" fill="white"/>
<path d="M402.829 112.33H401.983V83.9768H402.921L402.829 112.33Z" fill="white"/>
<path d="M684.162 369.892L684.112 368.321L714.337 367.402L714.388 369.138L684.162 369.892ZM683.811 362.03L683.718 360.506L713.894 358.747L714.002 360.522L683.802 362.03H683.811ZM683.224 354.199L683.082 352.684L713.19 350.084L713.358 351.859L683.224 354.199ZM682.395 346.392L682.203 344.884L712.219 341.452L712.436 343.219L682.387 346.4L682.395 346.392ZM681.315 338.625L681.072 337.117L710.971 332.836L711.247 334.595L681.315 338.617V338.625ZM679.992 330.88L679.698 329.388L709.446 324.267L709.781 326.026L679.992 330.88ZM678.425 323.223L678.074 321.66L707.654 315.777L708.023 317.442L678.425 323.223ZM676.616 315.58L676.214 314.017L705.594 307.31L706.021 308.959L676.616 315.58ZM674.556 307.946L674.112 306.438L703.257 298.89L703.751 300.571L674.556 307.946ZM672.245 300.383L671.767 298.93L700.653 290.541C700.837 291.107 701.021 291.68 701.205 292.254L672.245 300.39V300.383ZM669.724 292.96L669.179 291.445L697.805 282.302L698.391 283.92L669.724 292.968V292.96ZM666.935 285.507L666.365 284.085L694.665 274.103C694.891 274.668 695.117 275.218 695.335 275.783L666.927 285.507H666.935ZM663.928 278.202L663.317 276.804L691.289 266.021L692.01 267.67L663.937 278.202H663.928ZM660.704 271.024L660.042 269.61L687.663 258.064L688.417 259.667L660.704 271.024ZM657.245 263.9L656.542 262.51L683.785 250.218L684.589 251.797L657.245 263.908V263.9ZM653.577 256.894L652.806 255.504L679.665 242.466L680.511 244.013L653.577 256.894ZM649.674 249.975L648.878 248.616L675.293 234.816L676.189 236.355L649.666 249.975H649.674ZM645.57 243.189L644.716 241.838L670.679 227.307L671.625 228.8L645.57 243.189ZM641.24 236.505L640.328 235.162L665.846 219.932L666.818 221.378L641.232 236.505H641.24ZM636.684 229.915L635.755 228.627L660.763 212.683L661.801 214.128L636.684 229.915ZM631.927 223.467L630.964 222.21L655.453 205.575L656.542 207.004L631.919 223.459L631.927 223.467ZM626.969 217.152L625.964 215.919L649.934 198.632L651.064 200.022L626.969 217.152ZM621.819 210.979L620.78 209.785L644.18 191.822L645.369 193.181L621.819 210.979ZM616.492 204.962L615.378 203.761L638.251 185.201L639.448 186.497L616.492 204.962ZM610.948 199.072L609.826 197.917L632.087 178.722L633.334 180.002L610.948 199.064V199.072ZM605.245 193.354L604.072 192.223L625.722 172.423L627.003 173.663L605.245 193.354ZM599.382 187.817L598.134 186.686L619.156 166.304L620.445 167.474L599.374 187.817H599.382ZM593.285 182.389L592.037 181.313L612.414 160.359L613.762 161.513L593.285 182.382V182.389ZM587.029 177.143L585.773 176.13L605.471 154.609L606.886 155.756L587.037 177.143H587.029ZM580.639 172.085L579.332 171.087L598.36 149.049L599.793 150.14L580.639 172.085ZM574.081 167.207L572.75 166.241L591.083 143.692L592.548 144.744L574.09 167.207H574.081ZM567.373 162.503L566.008 161.576L583.612 138.524L585.111 139.537L567.365 162.503H567.373ZM560.522 157.994L559.124 157.107L575.999 133.576L577.532 134.542L560.514 157.987L560.522 157.994ZM553.521 153.675L552.114 152.842L568.21 128.832L569.793 129.767L553.521 153.675ZM546.402 149.551L544.953 148.75L560.304 124.316L561.896 125.203L546.402 149.551ZM539.141 145.624L537.675 144.87L552.231 120.012L553.856 120.852L539.141 145.616V145.624ZM531.762 141.909L530.263 141.187L544.032 115.943L545.682 116.736L531.762 141.917V141.909ZM524.25 138.39L522.743 137.707L535.699 112.087L537.382 112.841L524.25 138.39ZM516.671 135.092L515.13 134.455L527.24 108.466L528.932 109.173L516.671 135.092ZM508.966 132.005L507.383 131.4L518.689 105.104L520.389 105.748L508.966 132.005ZM501.143 129.122L499.561 128.573L510.013 101.963L511.746 102.568L501.143 129.122ZM493.254 126.476L491.638 125.957L501.252 99.0725L502.994 99.6144L493.263 126.468L493.254 126.476ZM485.239 124.033L483.648 123.577L492.375 96.4256L494.167 96.944L485.239 124.033ZM477.216 121.834L475.608 121.425L483.455 94.0379L485.256 94.4935L477.208 121.826L477.216 121.834ZM469.117 119.862L467.509 119.501L474.486 91.9095L476.303 92.3179L469.117 119.87V119.862ZM460.985 118.119L459.327 117.789L465.458 90.0166L467.25 90.37L460.985 118.119ZM452.769 116.603L451.111 116.328L456.354 88.3986L458.171 88.705L452.769 116.603ZM444.52 115.315L442.87 115.087L447.2 87.0242L449.034 87.2834L444.52 115.323V115.315ZM436.212 114.255L434.571 114.074L438.013 85.901L439.872 86.1052L436.212 114.255ZM427.896 113.43L426.254 113.296L428.8 85.0371L430.668 85.1941L427.896 113.43ZM419.563 112.833L417.896 112.747L419.596 84.4323L421.447 84.5344L419.571 112.833H419.563ZM411.221 112.472L409.529 112.425L410.333 84.0788L412.167 84.126L411.229 112.472H411.221Z" fill="white"/>
<path d="M714.505 377.055H684.263V376.301L714.496 376.136L714.505 377.055Z" fill="white"/>
<path d="M375.1 389.48C376.766 391.931 378.843 394.114 381.28 395.96L378.776 398.866C376.004 396.761 373.634 394.279 371.741 391.483L375.1 389.48Z" fill="#9ED5B7"/>
<path d="M371.699 367.426C369.639 374.133 370.468 381.516 373.969 387.682L370.46 389.433C366.473 382.427 365.527 374.031 367.872 366.397L371.699 367.426Z" fill="#9ED5B7"/>
<path d="M373.919 355.55L377.009 357.899C375.041 360.184 373.483 362.721 372.394 365.447L368.667 364.135C369.899 361.032 371.666 358.15 373.91 355.55H373.919Z" fill="#9ED5B7"/>
<path d="M399.488 409.956C386.875 409.956 375.192 404.05 368.232 394.169L368.894 393.761C375.711 403.429 387.143 409.202 399.488 409.202C402.402 409.202 405.308 408.88 408.114 408.244L408.306 408.974C405.434 409.618 402.469 409.948 399.488 409.948V409.956ZM412.151 407.89L411.883 407.191C426.371 402.306 436.12 389.315 436.12 374.864C436.12 363.813 430.391 353.367 420.794 346.926L421.254 346.322C431.061 352.903 436.915 363.577 436.915 374.864C436.915 389.622 426.958 402.903 412.142 407.89H412.151ZM366.189 390.918C363.45 385.922 362.051 380.519 362.051 374.864C362.051 365.941 365.627 357.443 372.11 350.924L372.696 351.435C366.348 357.812 362.847 366.13 362.847 374.864C362.847 380.401 364.212 385.687 366.9 390.572L366.189 390.91V390.918ZM375.535 348.874L375.016 348.309C381.8 342.803 390.493 339.771 399.479 339.771C405.928 339.771 412.285 341.334 417.862 344.287L417.469 344.939C412.008 342.049 405.794 340.517 399.479 340.517C390.685 340.517 382.176 343.486 375.527 348.874H375.535Z" fill="#9ED5B7"/>
<path d="M438.054 346.353L437.476 345.693C432.761 340.297 426.714 335.923 419.981 333.017L419.16 332.663L423.582 323.662L424.403 324.016C432.577 327.542 439.93 332.867 445.659 339.41L446.228 340.062L438.054 346.353ZM421.555 331.839C427.937 334.721 433.691 338.892 438.297 343.965L443.674 339.834C438.406 333.998 431.79 329.207 424.462 325.909L421.555 331.831V331.839Z" fill="#9ED5B7"/>
<path d="M458.447 383.59L447.979 382.207L448.104 381.367C448.431 379.223 448.59 377.039 448.59 374.864C448.59 369.994 447.786 365.195 446.195 360.608L445.918 359.799L455.968 356.736L456.253 357.545C458.188 363.122 459.168 368.942 459.168 374.856C459.168 377.503 458.967 380.157 458.573 382.749L458.447 383.59ZM450.014 380.762L456.906 381.673C457.208 379.427 457.359 377.141 457.359 374.864C457.359 369.413 456.496 364.041 454.804 358.873L448.188 360.891C449.662 365.399 450.399 370.096 450.399 374.864C450.399 376.835 450.273 378.814 450.014 380.762Z" fill="#9ED5B7"/>
<path d="M432.611 421.415L426.606 413.263L427.351 412.776C433.465 408.817 438.632 403.524 442.276 397.468L442.719 396.73L451.932 401.607L451.488 402.345C447.049 409.697 440.785 416.129 433.365 420.928L432.619 421.415H432.611ZM429.118 413.687L433.071 419.051C439.704 414.614 445.341 408.833 449.453 402.251L443.398 399.047C439.797 404.772 434.889 409.807 429.11 413.687H429.118Z" fill="#9ED5B7"/>
<path d="M397.034 457.018C381.641 456.626 366.599 452.424 353.526 444.868L354.573 443.281C367.344 450.664 382.043 454.764 397.092 455.157L397.034 457.018ZM417.058 455.4L416.656 453.57C417.938 453.327 419.228 453.052 420.492 452.753L420.978 454.568C419.68 454.874 418.365 455.157 417.058 455.4ZM350.151 442.81C344.606 439.268 339.498 435.121 334.95 430.487L336.407 429.222C340.854 433.754 345.854 437.807 351.273 441.263L350.151 442.81ZM460.608 433.786L459.218 432.45C463.925 428.154 468.104 423.363 471.647 418.187L473.322 419.2C469.695 424.486 465.424 429.395 460.608 433.786ZM475.424 415.972L473.699 415.038C481.203 402.879 485.164 388.993 485.164 374.864H487.157C487.157 389.315 483.095 403.531 475.415 415.972H475.424ZM313.904 392.779C313.61 391.554 313.351 390.313 313.125 389.072L315.084 388.758C315.302 389.959 315.562 391.177 315.847 392.371L313.904 392.779ZM313.937 370.371L311.944 370.269C312.79 355.872 317.697 341.892 326.123 329.844L327.789 330.872C319.548 342.638 314.758 356.304 313.937 370.379V370.371ZM484.578 365.399C484.427 364.19 484.243 362.957 484.033 361.747L485.993 361.449C486.211 362.682 486.403 363.939 486.554 365.187L484.578 365.399ZM330.025 327.825L328.409 326.725C332.345 321.636 336.91 316.955 341.968 312.824L343.275 314.23C338.325 318.267 333.87 322.838 330.025 327.817V327.825Z" fill="#9ED5B7"/>
<path d="M399.487 449.196C355.761 449.196 320.193 415.847 320.193 374.864C320.193 333.873 355.761 300.524 399.487 300.524C443.205 300.524 478.782 333.873 478.782 374.864C478.782 415.847 443.213 449.196 399.487 449.196ZM399.487 301.278C356.205 301.278 320.988 334.289 320.988 374.864C320.988 415.438 356.205 448.449 399.487 448.449C442.769 448.449 477.986 415.438 477.986 374.864C477.986 334.289 442.769 301.278 399.487 301.278Z" fill="#9ED5B7"/>
<path d="M369.003 462.964C362.612 461.024 356.415 458.448 350.561 455.322L351.943 453.052C357.629 456.091 363.659 458.589 369.865 460.482L369.003 462.964ZM437.77 460.246L436.689 457.843C437.887 457.372 439.093 456.869 440.265 456.351L441.455 458.715C440.24 459.249 439.001 459.759 437.77 460.246ZM477.157 432.073L474.963 430.455C479.008 425.633 482.534 420.41 485.449 414.936L487.944 416.098C484.954 421.737 481.32 427.11 477.157 432.073ZM317.203 426.12C316.466 425.075 315.729 424.007 315.042 422.931L317.421 421.572C318.099 422.617 318.803 423.654 319.523 424.675L317.203 426.12ZM494.083 359.572C491.571 345.803 485.549 332.593 476.663 321.345L478.899 319.79C488.045 331.359 494.242 344.963 496.83 359.132L494.083 359.572ZM335.159 308.072L333.292 306.132C334.28 305.291 335.31 304.459 336.34 303.658L338.124 305.661C337.119 306.446 336.122 307.255 335.159 308.072Z" fill="#9ED5B7"/>
<path d="M323.786 458.118L323.099 457.56C315.93 451.74 309.523 445.111 304.071 437.862L303.552 437.171L309.908 432.969L310.428 433.66C315.528 440.43 321.499 446.619 328.191 452.054L328.878 452.604L323.786 458.126V458.118ZM306.073 437.579C311.156 444.216 317.044 450.319 323.602 455.722L326.332 452.769C320.034 447.57 314.364 441.71 309.473 435.325L306.073 437.579ZM494.552 438.317L488.179 434.131L488.698 433.432C489.803 431.956 490.875 430.44 491.88 428.924L492.366 428.201L498.966 432.073L498.48 432.788C497.4 434.406 496.252 436.032 495.071 437.626L494.552 438.317ZM490.691 433.715L494.1 435.953C494.921 434.854 495.708 433.731 496.47 432.615L492.936 430.542C492.215 431.61 491.462 432.67 490.7 433.715H490.691ZM499.351 334.046L498.982 333.268C498.195 331.626 497.358 329.993 496.495 328.406L496.085 327.652L503.019 324.33L503.43 325.084C504.359 326.796 505.255 328.548 506.093 330.299L506.461 331.069L499.359 334.046H499.351ZM498.513 328.383C499.116 329.506 499.694 330.653 500.255 331.799L504.066 330.213C503.48 329.003 502.86 327.794 502.224 326.608L498.513 328.383Z" fill="#9ED5B7"/>
<path d="M504.971 421.651L497.902 418.588L498.279 417.818C501.989 410.294 504.72 402.353 506.386 394.201L506.562 393.368L514.208 394.75L514.033 395.583C512.24 404.309 509.326 412.823 505.356 420.881L504.971 421.651ZM500.298 417.763L504.083 419.397C507.676 411.951 510.364 404.12 512.081 396.093L507.994 395.355C506.336 403.068 503.748 410.6 500.298 417.763ZM307.522 320.104L300.989 316.138L301.475 315.423C302.589 313.813 303.761 312.203 304.959 310.656L305.495 309.973L311.793 314.253L311.265 314.936C310.143 316.389 309.054 317.89 308.016 319.39L307.522 320.104ZM303.493 315.635L306.986 317.756C307.723 316.704 308.493 315.659 309.272 314.63L305.905 312.337C305.076 313.421 304.272 314.528 303.493 315.635ZM338.719 290.156L334.439 284.062L335.193 283.598C335.637 283.323 336.089 283.048 336.541 282.781C338.049 281.87 339.606 280.983 341.173 280.135C351.809 274.385 363.257 270.254 375.2 267.882L376.088 267.709L377.704 274.849L376.817 275.022C365.678 277.236 354.991 281.085 345.067 286.457C343.618 287.243 342.161 288.075 340.737 288.931C340.31 289.183 339.891 289.442 339.481 289.693L338.727 290.164L338.719 290.156ZM336.943 284.549L339.238 287.816C339.414 287.706 339.581 287.604 339.757 287.502C341.206 286.63 342.688 285.782 344.162 284.988C353.986 279.671 364.547 275.823 375.56 273.537L374.689 269.72C363.249 272.084 352.286 276.082 342.077 281.603C340.536 282.436 339.003 283.316 337.513 284.203C337.328 284.321 337.136 284.439 336.943 284.549ZM409.848 273.278L408.943 273.207C407.034 273.05 405.099 272.932 403.181 272.869L402.277 272.838L402.553 265.549L403.457 265.581C405.509 265.651 407.578 265.769 409.63 265.942L410.526 266.013L409.848 273.286V273.278ZM404.153 271.212C405.501 271.267 406.858 271.346 408.206 271.448L408.566 267.552C407.151 267.45 405.719 267.364 404.295 267.309L404.153 271.212Z" fill="#9ED5B7"/>
<mask id="mask0_115_4489" style="mask-type:luminance" maskUnits="userSpaceOnUse" x="199" y="184" width="405" height="386">
<path d="M199.903 184.981H603.511V569.019H199.903V184.981Z" fill="white"/>
</mask>
<g mask="url(#mask0_115_4489)">
<path d="M199.911 400.343L217.859 398.269C230.137 491.498 318.007 558.117 417.904 549.933C503.991 542.872 574.5 479.528 585.563 399.314L603.502 401.489C597.648 443.918 576.292 483.793 543.362 513.765C509.945 544.16 465.96 563.002 419.487 566.819C366.641 571.147 314.85 556.287 273.661 524.973C232.574 493.736 206.385 449.47 199.911 400.343ZM261.007 239.214C294.297 209.266 337.998 190.691 384.044 186.913C442.878 182.091 500.959 201.444 543.403 240.015L530.816 252.189C492.14 217.042 439.218 199.409 385.618 203.8C343.057 207.295 304.297 223.765 273.536 251.443L261.015 239.214H261.007Z" fill="#9ED5B7"/>
</g>
<path d="M399.479 445.331C358.057 445.331 324.347 413.742 324.347 374.903C324.347 347.995 340.318 323.827 366.03 311.818L370.46 320.167C348.149 330.582 334.288 351.553 334.288 374.903C334.288 408.597 363.534 436.008 399.479 436.008C435.416 436.008 464.662 408.597 464.662 374.903H474.603C474.603 413.742 440.902 445.331 399.479 445.331Z" fill="#9ED5B7"/>
<path d="M405.593 374.903C405.593 375.665 405.434 376.395 405.124 377.094C404.814 377.793 404.37 378.414 403.8 378.956C403.231 379.49 402.569 379.906 401.816 380.197C401.07 380.487 400.291 380.629 399.479 380.629C398.667 380.629 397.888 380.487 397.142 380.197C396.389 379.906 395.735 379.49 395.157 378.956C394.588 378.414 394.144 377.793 393.834 377.094C393.524 376.395 393.365 375.665 393.365 374.903C393.365 374.141 393.524 373.411 393.834 372.712C394.144 372.013 394.588 371.392 395.157 370.85C395.735 370.316 396.389 369.9 397.142 369.609C397.888 369.319 398.667 369.177 399.479 369.177C400.291 369.177 401.07 369.319 401.816 369.609C402.569 369.9 403.231 370.316 403.8 370.85C404.37 371.392 404.814 372.013 405.124 372.712C405.434 373.411 405.593 374.141 405.593 374.903Z" fill="#9ED5B7"/>
<path d="M355.033 532.709C303.141 519.836 259.776 484.524 239.022 438.247L248.193 434.634C267.757 478.264 308.644 511.558 357.579 523.692L355.033 532.709ZM525.674 487.296L518.463 480.879C547.583 452.102 563.612 414.535 563.612 375.099C563.612 367.174 562.951 359.155 561.636 351.262C558.805 334.195 553.035 317.874 544.484 302.77L553.261 298.395C562.339 314.426 568.461 331.729 571.46 349.825C572.85 358.197 573.553 366.695 573.553 375.099C573.553 416.938 556.552 456.783 525.674 487.304V487.296ZM270.898 279.302L263.101 273.506C290.378 241.249 329.313 220.003 372.729 213.673C382.377 212.267 392.218 211.607 401.874 211.717L401.757 221.04C392.637 220.938 383.357 221.55 374.254 222.878C333.325 228.847 296.617 248.883 270.898 279.302Z" fill="#9ED5B7"/>
<path d="M399.605 493.069H399.479C395.844 493.069 392.176 492.92 388.575 492.637L388.96 488.411C392.436 488.694 395.978 488.836 399.479 488.836H399.596V493.069H399.605ZM435.893 488.066L434.587 484.005C470.348 473.905 499.669 448.332 513.027 415.595L517.248 417.111C503.396 451.065 472.978 477.588 435.893 488.066ZM321.131 467.48C313.937 462.116 307.346 456.005 301.55 449.305L305.059 446.635C310.654 453.091 317.01 458.99 323.945 464.158L321.139 467.472L321.131 467.48ZM291.031 435.168C279.515 416.993 273.427 396.156 273.427 374.903C273.427 359.854 276.408 345.199 282.271 331.328L286.475 332.891C280.822 346.259 277.949 360.388 277.949 374.903C277.949 395.394 283.82 415.485 294.917 433L291.031 435.168ZM522.55 400.578L518.136 399.667C520.045 391.585 521.009 383.252 521.009 374.903H525.531C525.531 383.566 524.526 392.206 522.55 400.578ZM519.786 358.653C519.283 355.378 518.622 352.079 517.818 348.851L522.223 347.885C523.052 351.231 523.739 354.655 524.258 358.056L519.786 358.653ZM504.803 318.023C486.085 287.627 452.844 266.688 415.902 262.007L416.505 257.813C454.829 262.659 489.301 284.376 508.714 315.91L504.795 318.023H504.803ZM304.188 304.192L300.646 301.561C302.924 298.867 305.352 296.236 307.873 293.738L311.156 296.652C308.727 299.063 306.382 301.6 304.188 304.192ZM371.825 263.939L370.803 259.808C379.722 257.86 388.926 256.831 398.156 256.745L398.206 260.978C389.303 261.065 380.426 262.062 371.825 263.939Z" fill="#9ED5B7"/>
<path d="M397.168 516.639C371.18 516.278 345.628 509.618 323.292 497.381L324.665 495.182C346.591 507.199 371.683 513.741 397.201 514.102L397.168 516.639ZM415.375 515.885L415.09 513.356C415.986 513.27 416.874 513.176 417.762 513.073L418.089 515.595C417.184 515.697 416.28 515.791 415.375 515.885ZM485.599 491.443L484.05 489.354C486.981 487.445 489.871 485.411 492.651 483.314L494.351 485.293C491.521 487.43 488.581 489.503 485.599 491.443ZM294.298 476.748C291.693 474.384 289.139 471.894 286.718 469.357L288.737 467.661C291.115 470.158 293.628 472.601 296.182 474.926L294.298 476.756V476.748ZM519.744 460.843L517.592 459.304C533.069 440.297 543.094 417.771 546.578 394.154L549.266 394.499C545.715 418.549 535.506 441.491 519.744 460.843ZM252.808 409.532C252.582 408.707 252.372 407.875 252.171 407.042L254.81 406.469C255.011 407.286 255.22 408.103 255.438 408.919L252.808 409.54V409.532ZM249.131 390.195C248.562 385.145 248.26 380 248.26 374.903C248.26 355.527 252.356 336.755 260.438 319.099L262.925 320.097C254.994 337.439 250.974 355.88 250.974 374.903C250.974 379.914 251.267 384.964 251.828 389.92L249.131 390.187V390.195ZM550.673 377.463L547.96 377.424C547.976 376.584 547.985 375.743 547.985 374.903C547.985 358.268 544.886 341.994 538.781 326.537L541.327 325.657C547.549 341.397 550.698 357.962 550.698 374.903C550.698 375.759 550.69 376.615 550.673 377.463ZM531.553 311.182C531.143 310.436 530.724 309.698 530.305 308.959L532.684 307.758C533.119 308.504 533.546 309.258 533.965 310.02L531.553 311.182ZM280.881 291.115L278.712 289.583C280.898 286.866 283.218 284.187 285.613 281.619L287.665 283.292C285.311 285.813 283.025 288.444 280.881 291.115ZM482.718 259.588C479.762 257.711 476.697 255.912 473.606 254.239L474.963 252.04C478.104 253.745 481.228 255.575 484.234 257.483L482.718 259.588ZM345.762 245.074L344.774 242.702C345.628 242.395 346.482 242.089 347.337 241.798L348.275 244.178C347.429 244.469 346.591 244.767 345.754 245.074H345.762ZM440.709 241.123C427.368 237.518 413.499 235.688 399.479 235.688C387.972 235.688 376.515 236.921 365.418 239.364L364.798 236.89C376.096 234.408 387.763 233.143 399.479 233.143C413.759 233.143 427.879 235.005 441.463 238.68L440.709 241.123Z" fill="#9ED5B7"/>
</g>
<defs>
<clipPath id="clip0_115_4489">
<rect width="804" height="754" fill="white"/>
</clipPath>
</defs>
</svg>
