<svg width="1080" height="1080" viewBox="0 0 1080 1080" fill="none" xmlns="http://www.w3.org/2000/svg">
<g filter="url(#filter0_d_149_16456)">
<path d="M498.953 561.312C501.537 565.359 504.75 568.958 508.516 572.01L504.641 576.797C500.354 573.328 496.693 569.234 493.76 564.625L498.953 561.312Z" fill="#9ED5B7"/>
<path d="M493.703 524.938C490.516 536.005 491.797 548.182 497.219 558.344L491.781 561.24C485.615 549.677 484.162 535.828 487.787 523.234L493.703 524.938Z" fill="#9ED5B7"/>
<path d="M497.125 505.344L501.912 509.224C498.865 512.99 496.464 517.182 494.781 521.672L489.01 519.51C490.922 514.391 493.656 509.63 497.12 505.344H497.125Z" fill="#9ED5B7"/>
<path d="M536.667 595.089C517.161 595.089 499.099 585.354 488.338 569.057L489.365 568.375C499.896 584.328 517.578 593.849 536.672 593.849C541.177 593.849 545.661 593.323 550.005 592.271L550.297 593.469C545.865 594.537 541.276 595.083 536.672 595.083L536.667 595.089ZM556.245 591.688L555.828 590.531C578.24 582.474 593.302 561.042 593.302 537.208C593.302 518.979 584.443 501.75 569.604 491.12L570.323 490.12C585.484 500.974 594.531 518.583 594.531 537.203C594.531 561.552 579.141 583.453 556.24 591.688H556.245ZM485.187 563.688C480.943 555.443 478.786 546.537 478.786 537.203C478.786 522.49 484.312 508.474 494.338 497.719L495.24 498.563C485.427 509.078 480.016 522.802 480.016 537.203C480.016 546.333 482.125 555.052 486.276 563.12L485.182 563.677L485.187 563.688ZM499.63 494.339L498.823 493.401C509.323 484.323 522.76 479.318 536.661 479.318C546.625 479.318 556.448 481.896 565.073 486.766L564.469 487.839C556.026 483.068 546.411 480.547 536.661 480.547C523.057 480.547 509.901 485.443 499.625 494.333L499.63 494.339Z" fill="#9ED5B7"/>
<path d="M596.292 490.167L595.411 489.089C588.115 480.193 578.76 472.964 568.354 468.177L567.083 467.594L573.917 452.74L575.182 453.323C587.833 459.141 599.193 467.927 608.052 478.724L608.937 479.802L596.292 490.167ZM570.781 466.229C580.646 470.99 589.552 477.87 596.672 486.24L604.99 479.417C596.838 469.797 586.615 461.891 575.281 456.453L570.781 466.224V466.229Z" fill="#9ED5B7"/>
<path d="M627.833 551.604L611.646 549.318L611.839 547.932C612.339 544.396 612.589 540.792 612.589 537.203C612.589 529.167 611.344 521.26 608.885 513.693L608.453 512.359L623.995 507.302L624.432 508.635C627.427 517.833 628.938 527.443 628.938 537.198C628.938 541.552 628.63 545.932 628.026 550.214L627.828 551.599L627.833 551.604ZM614.797 546.938L625.443 548.438C625.906 544.729 626.146 540.958 626.146 537.203C626.146 528.208 624.813 519.344 622.193 510.833L611.969 514.156C614.245 521.599 615.391 529.339 615.391 537.203C615.391 540.453 615.188 543.719 614.797 546.938Z" fill="#9ED5B7"/>
<path d="M587.88 613.995L578.594 600.542L579.745 599.745C589.198 593.219 597.182 584.484 602.828 574.495L603.516 573.276L617.75 581.318L617.063 582.537C610.208 594.672 600.521 605.271 589.047 613.193L587.891 613.99L587.88 613.995ZM582.479 601.245L588.589 610.099C598.844 602.776 607.563 593.24 613.922 582.38L604.557 577.089C598.995 586.542 591.396 594.849 582.474 601.245H582.479Z" fill="#9ED5B7"/>
<path d="M532.875 672.724C509.073 672.073 485.812 665.141 465.609 652.682L467.229 650.063C486.969 662.234 509.698 669.01 532.958 669.651L532.875 672.724ZM563.828 670.057L563.219 667.037C565.193 666.641 567.187 666.182 569.146 665.688L569.901 668.677C567.891 669.182 565.849 669.651 563.828 670.057ZM460.385 649.287C451.812 643.443 443.906 636.604 436.875 628.958L439.141 626.875C446.01 634.344 453.74 641.031 462.115 646.74L460.375 649.281L460.385 649.287ZM631.161 634.401L629.016 632.193C636.292 625.115 642.76 617.203 648.234 608.672L650.828 610.333C645.224 619.057 638.615 627.156 631.161 634.401ZM654.073 605.016L651.406 603.474C663.005 583.422 669.135 560.505 669.135 537.203H672.213C672.213 561.047 665.937 584.49 654.062 605.016H654.073ZM404.344 566.755C403.891 564.734 403.484 562.682 403.13 560.646L406.161 560.12C406.505 562.109 406.906 564.12 407.349 566.089L404.344 566.755ZM404.391 529.797L401.318 529.63C402.625 505.875 410.203 482.813 423.234 462.943L425.807 464.63C413.073 484.047 405.667 506.583 404.391 529.802V529.797ZM668.229 521.599C667.995 519.594 667.713 517.568 667.385 515.573L670.422 515.073C670.755 517.115 671.052 519.188 671.292 521.24L668.229 521.594V521.599ZM429.266 459.609L426.771 457.797C432.854 449.396 439.906 441.677 447.734 434.865L449.755 437.188C442.099 443.849 435.208 451.391 429.266 459.604V459.609Z" fill="#9ED5B7"/>
<path d="M536.667 659.823C469.063 659.823 414.062 604.813 414.062 537.203C414.062 469.589 469.063 414.583 536.667 414.583C604.266 414.583 659.266 469.589 659.266 537.203C659.266 604.813 604.266 659.823 536.667 659.823ZM536.667 415.818C469.74 415.818 415.297 470.271 415.297 537.203C415.297 604.135 469.74 658.589 536.667 658.589C603.589 658.589 658.031 604.135 658.031 537.203C658.031 470.271 603.589 415.818 536.667 415.818Z" fill="#9ED5B7"/>
<path d="M489.536 682.537C479.656 679.333 470.063 675.083 461.021 669.922L463.161 666.177C471.943 671.198 481.266 675.318 490.865 678.438L489.531 682.537H489.536ZM595.859 678.052L594.193 674.078C596.036 673.307 597.896 672.474 599.724 671.62L601.552 675.521C599.677 676.401 597.76 677.25 595.859 678.052ZM656.76 631.568L653.37 628.906C659.625 620.948 665.078 612.339 669.578 603.302L673.438 605.224C668.807 614.521 663.198 623.385 656.76 631.568ZM409.443 621.755C408.297 620.031 407.167 618.266 406.094 616.495L409.776 614.25C410.823 615.969 411.922 617.693 413.031 619.365L409.443 621.755ZM682.927 511.979C679.042 489.266 669.729 467.469 655.99 448.927L659.453 446.365C673.589 465.438 683.177 487.875 687.177 511.25L682.927 511.979ZM437.208 427.031L434.318 423.833C435.844 422.448 437.432 421.073 439.026 419.74L441.786 423.052C440.234 424.344 438.693 425.677 437.208 427.026V427.031Z" fill="#9ED5B7"/>
<path d="M419.615 674.542L418.557 673.62C407.474 664.016 397.573 653.089 389.135 641.13L388.328 639.99L398.161 633.052L398.969 634.193C406.844 645.359 416.089 655.563 426.438 664.531L427.495 665.448L419.615 674.547V674.542ZM392.229 640.656C400.089 651.609 409.198 661.667 419.339 670.589L423.557 665.719C413.813 657.141 405.057 647.469 397.495 636.938L392.229 640.656ZM683.651 641.875L673.797 634.964L674.594 633.818C676.302 631.38 677.964 628.88 679.526 626.375L680.266 625.193L690.469 631.573L689.729 632.76C688.063 635.427 686.286 638.109 684.448 640.729L683.651 641.875ZM677.682 634.281L682.958 637.979C684.214 636.161 685.443 634.313 686.615 632.464L681.156 629.047C680.036 630.807 678.875 632.552 677.688 634.281H677.682ZM691.068 469.87L690.5 468.594C689.292 465.885 687.995 463.188 686.656 460.568L686.026 459.323L696.74 453.844L697.38 455.089C698.823 457.911 700.208 460.802 701.5 463.693L702.073 464.969L691.083 469.875L691.068 469.87ZM689.776 460.536C690.703 462.391 691.604 464.276 692.474 466.172L698.359 463.547C697.453 461.557 696.495 459.562 695.51 457.599L689.776 460.531V460.536Z" fill="#9ED5B7"/>
<path d="M699.755 614.38L688.833 609.333L689.417 608.062C695.151 595.656 699.365 582.542 701.953 569.104L702.219 567.729L714.037 570.005L713.776 571.38C711.005 585.781 706.49 599.823 700.354 613.115L699.761 614.385L699.755 614.38ZM692.542 607.964L698.386 610.667C703.948 598.38 708.104 585.464 710.755 572.219L704.432 571C701.87 583.729 697.875 596.151 692.542 607.964ZM394.474 446.87L384.37 440.333L385.125 439.156C386.844 436.495 388.656 433.849 390.516 431.286L391.339 430.161L401.083 437.224L400.266 438.354C398.526 440.75 396.839 443.219 395.234 445.698L394.474 446.87ZM388.24 439.505L393.651 443.01C394.792 441.271 395.974 439.547 397.182 437.849L391.969 434.068C390.693 435.854 389.448 437.672 388.24 439.5V439.505ZM442.714 397.474L436.083 387.427L437.255 386.661C437.943 386.203 438.641 385.75 439.339 385.307C441.677 383.812 444.089 382.349 446.5 380.948C462.948 371.458 480.651 364.651 499.12 360.734L500.49 360.443L502.984 372.219L501.62 372.51C484.391 376.167 467.87 382.516 452.521 391.38C450.287 392.672 448.031 394.036 445.828 395.453C445.172 395.87 444.526 396.292 443.885 396.714L442.719 397.484L442.714 397.474ZM439.964 388.229L443.51 393.609C443.781 393.437 444.047 393.266 444.318 393.094C446.557 391.661 448.844 390.266 451.12 388.953C466.318 380.177 482.646 373.828 499.667 370.068L498.328 363.76C480.641 367.661 463.682 374.255 447.896 383.37C445.521 384.74 443.151 386.187 440.849 387.661C440.552 387.849 440.26 388.042 439.964 388.229ZM552.677 369.635L551.287 369.516C548.333 369.255 545.339 369.068 542.38 368.964L540.984 368.911L541.412 356.885L542.807 356.937C545.974 357.047 549.177 357.25 552.344 357.526L553.734 357.651L552.677 369.641V369.635ZM543.875 366.224C545.964 366.312 548.063 366.448 550.141 366.615L550.708 360.193C548.511 360.016 546.302 359.88 544.104 359.786L543.875 366.224Z" fill="#9ED5B7"/>
<mask id="mask0_149_16456" style="mask-type:luminance" maskUnits="userSpaceOnUse" x="228" y="225" width="625" height="631">
<path d="M228.094 225.333H852.094V856H228.094V225.333Z" fill="white"/>
</mask>
<g mask="url(#mask0_149_16456)">
<path d="M228.094 579.24L255.839 575.812C274.823 729.604 410.688 839.49 565.146 825.984C698.25 814.344 807.271 709.859 824.375 577.542L852.104 581.125C843.057 651.115 810.031 716.885 759.115 766.323C707.458 816.474 639.438 847.552 567.583 853.844C485.875 860.984 405.807 836.474 342.12 784.818C278.589 733.286 238.099 660.276 228.094 579.24ZM322.557 313.443C374.026 264.042 441.589 233.401 512.792 227.172C603.755 219.219 693.563 251.141 759.177 314.76L739.719 334.839C679.927 276.875 598.104 247.781 515.229 255.031C449.411 260.786 389.479 287.964 341.922 333.615L322.563 313.443H322.557Z" fill="#9ED5B7"/>
</g>
<path d="M536.656 653.448C472.599 653.448 420.49 601.328 420.49 537.271C420.49 492.885 445.182 453.016 484.932 433.214L491.786 446.979C457.297 464.161 435.865 498.755 435.865 537.271C435.865 592.849 481.073 638.068 536.646 638.068C592.219 638.068 637.432 592.849 637.432 537.271H652.812C652.812 601.328 600.703 653.448 536.656 653.448Z" fill="#9ED5B7"/>
<path d="M546.099 537.271C546.099 537.891 546.042 538.505 545.922 539.115C545.797 539.719 545.62 540.312 545.38 540.885C545.146 541.458 544.854 542.005 544.51 542.521C544.167 543.036 543.771 543.51 543.333 543.953C542.896 544.391 542.417 544.781 541.901 545.125C541.385 545.469 540.844 545.76 540.271 546C539.698 546.234 539.104 546.417 538.495 546.536C537.891 546.656 537.276 546.719 536.656 546.719C536.031 546.719 535.417 546.656 534.812 546.536C534.203 546.417 533.609 546.234 533.036 546C532.463 545.76 531.922 545.469 531.406 545.125C530.891 544.781 530.411 544.391 529.974 543.953C529.536 543.51 529.141 543.036 528.797 542.521C528.453 542.005 528.161 541.458 527.927 540.885C527.687 540.312 527.51 539.719 527.385 539.115C527.266 538.505 527.208 537.891 527.208 537.271C527.208 536.651 527.266 536.036 527.385 535.427C527.51 534.818 527.687 534.224 527.927 533.651C528.161 533.078 528.453 532.536 528.797 532.021C529.141 531.505 529.536 531.026 529.974 530.588C530.411 530.151 530.891 529.755 531.406 529.411C531.922 529.068 532.463 528.776 533.036 528.542C533.609 528.302 534.203 528.125 534.812 528C535.417 527.88 536.031 527.818 536.656 527.818C537.276 527.818 537.891 527.88 538.495 528C539.104 528.125 539.698 528.302 540.271 528.542C540.844 528.776 541.385 529.068 541.901 529.411C542.417 529.755 542.896 530.151 543.333 530.588C543.771 531.026 544.167 531.505 544.51 532.021C544.854 532.536 545.146 533.078 545.38 533.651C545.62 534.224 545.797 534.818 545.922 535.427C546.042 536.036 546.099 536.651 546.099 537.271Z" fill="#9ED5B7"/>
<path d="M467.937 797.578C387.703 776.349 320.646 718.094 288.568 641.755L302.745 635.792C332.984 707.766 396.213 762.688 471.875 782.708L467.937 797.578ZM731.771 722.667L720.615 712.078C765.641 664.62 790.432 602.651 790.432 537.594C790.432 524.521 789.401 511.286 787.38 498.266C783 470.115 774.073 443.203 760.849 418.276L774.432 411.073C788.458 437.516 797.927 466.057 802.568 495.906C804.714 509.714 805.807 523.734 805.807 537.599C805.807 606.609 779.51 672.339 731.766 722.677L731.771 722.667ZM337.849 379.568L325.797 370.016C367.969 316.807 428.167 281.745 495.292 271.307C510.213 268.99 525.427 267.906 540.359 268.094L540.172 283.469C526.073 283.302 511.734 284.307 497.656 286.5C434.365 296.344 377.609 329.396 337.849 379.563V379.568Z" fill="#9ED5B7"/>
<path d="M536.844 732.193H536.656C531.042 732.193 525.365 731.948 519.797 731.474L520.391 724.505C525.766 724.969 531.234 725.203 536.646 725.203H536.839V732.193H536.844ZM592.953 723.932L590.943 717.24C646.229 700.578 691.568 658.391 712.219 604.391L718.745 606.891C697.323 662.901 650.297 706.656 592.953 723.932ZM415.521 689.979C404.385 681.13 394.198 671.047 385.24 660L390.672 655.594C399.313 666.245 409.141 675.969 419.87 684.495L415.526 689.969L415.521 689.979ZM368.979 636.682C351.172 606.708 341.76 572.328 341.76 537.271C341.76 512.448 346.359 488.266 355.438 465.396L361.932 467.969C353.188 490.021 348.745 513.328 348.745 537.266C348.745 571.068 357.823 604.208 374.984 633.104L368.979 636.677V636.682ZM726.938 579.63L720.115 578.115C723.063 564.786 724.563 551.047 724.563 537.271H731.547C731.547 551.552 729.995 565.807 726.938 579.62V579.63ZM722.662 510.469C721.891 505.063 720.87 499.62 719.625 494.292L726.432 492.703C727.719 498.219 728.781 503.87 729.583 509.479L722.667 510.464L722.662 510.469ZM699.5 443.448C670.557 393.302 619.167 358.766 562.047 351.047L562.984 344.115C622.234 352.12 675.531 387.943 705.547 439.953L699.495 443.448H699.5ZM389.313 420.63L383.839 416.292C387.359 411.844 391.125 407.505 395.016 403.385L400.099 408.188C396.344 412.161 392.714 416.354 389.318 420.63H389.313ZM493.901 354.229L492.313 347.417C506.109 344.208 520.333 342.505 534.609 342.359L534.682 349.349C520.917 349.484 507.198 351.13 493.901 354.224V354.229Z" fill="#9ED5B7"/>
<path d="M533.078 771.078C492.891 770.474 453.396 759.484 418.859 739.302L420.974 735.682C454.885 755.5 493.672 766.292 533.135 766.88L533.078 771.078ZM561.229 769.823L560.792 765.651C562.172 765.505 563.547 765.349 564.917 765.182L565.432 769.349C564.036 769.521 562.63 769.677 561.229 769.823ZM669.807 729.505L667.411 726.057C671.943 722.917 676.417 719.562 680.708 716.099L683.344 719.365C678.969 722.891 674.417 726.302 669.807 729.505ZM374.031 705.276C369.995 701.37 366.052 697.26 362.307 693.078L365.432 690.281C369.109 694.396 372.984 698.427 376.948 702.266L374.031 705.281V705.276ZM722.604 679.036L719.271 676.495C743.198 645.141 758.703 607.979 764.088 569.026L768.245 569.599C762.755 609.271 746.979 647.109 722.609 679.036H722.604ZM309.875 594.396C309.531 593.026 309.203 591.661 308.885 590.286L312.969 589.339C313.281 590.693 313.609 592.036 313.943 593.38L309.875 594.401V594.396ZM304.198 562.49C303.307 554.167 302.849 545.682 302.849 537.271C302.849 505.312 309.182 474.339 321.667 445.214L325.521 446.865C313.26 475.469 307.047 505.885 307.047 537.271C307.047 545.531 307.49 553.87 308.365 562.036L304.198 562.484V562.49ZM770.422 541.5L766.229 541.427C766.25 540.047 766.266 538.661 766.266 537.271C766.266 509.828 761.479 482.984 752.036 457.495L755.969 456.036C765.588 481.995 770.463 509.328 770.463 537.271C770.463 538.682 770.453 540.089 770.422 541.5ZM740.859 432.161C740.224 430.932 739.578 429.714 738.927 428.495L742.615 426.51C743.281 427.745 743.937 428.99 744.583 430.245L740.859 432.161ZM353.276 399.052L349.927 396.526C353.302 392.047 356.896 387.625 360.604 383.391L363.766 386.151C360.125 390.318 356.599 394.656 353.281 399.052H353.276ZM665.349 347.057C660.781 343.953 656.042 340.984 651.26 338.229L653.359 334.594C658.219 337.406 663.052 340.427 667.703 343.583L665.349 347.057ZM453.594 323.109L452.078 319.198C453.391 318.687 454.708 318.193 456.031 317.703L457.479 321.635C456.177 322.115 454.88 322.604 453.588 323.104L453.594 323.109ZM600.401 316.589C579.781 310.641 558.333 307.625 536.661 307.625H536.646C518.865 307.625 501.151 309.667 483.99 313.693L483.031 309.609C500.505 305.51 518.542 303.432 536.646 303.432H536.661C558.724 303.432 580.557 306.505 601.562 312.557L600.401 316.589Z" fill="#9ED5B7"/>
</g>
<defs>
<filter id="filter0_d_149_16456" x="-6" y="-6" width="1092" height="1092" filterUnits="userSpaceOnUse" color-interpolation-filters="sRGB">
<feFlood flood-opacity="0" result="BackgroundImageFix"/>
<feColorMatrix in="SourceAlpha" type="matrix" values="0 0 0 0 0 0 0 0 0 0 0 0 0 0 0 0 0 0 127 0" result="hardAlpha"/>
<feOffset/>
<feGaussianBlur stdDeviation="3"/>
<feColorMatrix type="matrix" values="0 0 0 0 0.619608 0 0 0 0 0.835294 0 0 0 0 0.717647 0 0 0 0.83 0"/>
<feBlend mode="normal" in2="BackgroundImageFix" result="effect1_dropShadow_149_16456"/>
<feBlend mode="normal" in="SourceGraphic" in2="effect1_dropShadow_149_16456" result="shape"/>
</filter>
</defs>
</svg>
