<svg width="510" height="890" viewBox="0 0 510 890" fill="none" xmlns="http://www.w3.org/2000/svg">
<path d="M59.6511 167.955L187.622 237.783" stroke="#9ED5B7" stroke-width="22" stroke-linecap="round" stroke-linejoin="bevel"/>
<path d="M333.382 11L457.629 87.0848" stroke="#9ED5B7" stroke-width="22" stroke-linecap="round" stroke-linejoin="bevel"/>
<path d="M60.1365 167.476L188.266 96.1767" stroke="#9ED5B7" stroke-width="22" stroke-linecap="round" stroke-linejoin="bevel"/>
<path d="M281.548 39.7196L332.314 11.4703" stroke="#9ED5B7" stroke-width="22" stroke-linecap="round" stroke-linejoin="bevel"/>
<path d="M226.256 72.1437L255.109 56.088" stroke="#9ED5B7" stroke-width="22" stroke-linecap="round" stroke-linejoin="bevel"/>
<path d="M59.6511 378.983L187.104 449.726" stroke="#9ED5B7" stroke-width="22" stroke-linecap="round" stroke-linejoin="bevel"/>
<path d="M175.81 443.104L175.81 454.104L197.81 454.104L197.81 443.104L175.81 443.104ZM197.81 237.34C197.81 231.265 192.885 226.34 186.81 226.34C180.735 226.34 175.81 231.265 175.81 237.34L197.81 237.34ZM197.81 443.104L197.81 237.34L175.81 237.34L175.81 443.104L197.81 443.104Z" fill="#9ED5B7"/>
<path d="M48.6511 375.155L48.6511 386.155L70.6511 386.155L70.6511 375.155L48.6511 375.155ZM70.6511 170.826C70.6511 164.751 65.7263 159.826 59.6511 159.826C53.576 159.826 48.6511 164.751 48.6511 170.826L70.6511 170.826ZM70.6511 375.155L70.6511 170.826L48.6511 170.826L48.6511 375.155L70.6511 375.155Z" fill="#9ED5B7"/>
<path d="M457.629 296.677L457.629 90.4345" stroke="#9ED5B7" stroke-width="22" stroke-linecap="round" stroke-linejoin="bevel"/>
<path d="M186.862 238.154L457.144 89.956" stroke="#9ED5B7" stroke-width="22" stroke-linecap="round"/>
<path d="M187.571 450.155L456.415 297.634" stroke="#9ED5B7" stroke-width="22" stroke-linecap="round"/>
<path d="M139.369 707.979L136.19 718.509L157.3 724.704L160.479 714.174L139.369 707.979ZM246.869 428.018C248.625 422.202 245.323 416.101 239.494 414.39C233.664 412.679 227.515 416.007 225.76 421.823L246.869 428.018ZM160.479 714.174L246.869 428.018L225.76 421.823L139.369 707.979L160.479 714.174Z" fill="#9ED5B7"/>
<path d="M4.47888 641.351L1.1846 651.847L22.2268 658.267L25.5211 647.772L4.47888 641.351ZM103.175 400.377C104.995 394.58 101.759 388.444 95.9485 386.671C90.1378 384.898 83.9525 388.16 82.1331 393.956L103.175 400.377ZM25.5211 647.772L103.175 400.377L82.1331 393.956L4.47888 641.351L25.5211 647.772Z" fill="#9ED5B7"/>
<path d="M139.95 720.811L149.743 725.82L159.986 706.349L150.192 701.341L139.95 720.811ZM20.1212 634.827C14.7122 632.061 8.03461 634.177 5.20628 639.554C2.37794 644.93 4.46993 651.531 9.87887 654.297L20.1212 634.827ZM150.192 701.341L20.1212 634.827L9.87887 654.297L139.95 720.811L150.192 701.341Z" fill="#9ED5B7"/>
<path d="M186.809 809.652L15.7279 647.911" stroke="#9ED5B7" stroke-width="22" stroke-linecap="square" stroke-linejoin="bevel"/>
<path d="M199.182 804.927L189.374 799.947L179.189 819.447L188.998 824.426L199.182 804.927ZM311.06 886.394C316.478 889.144 323.149 887.009 325.962 881.624C328.774 876.239 326.662 869.645 321.245 866.895L311.06 886.394ZM188.998 824.426L311.06 886.394L321.245 866.895L199.182 804.927L188.998 824.426Z" fill="#9ED5B7"/>
<path d="M328.366 678.058L328.366 667.058L306.366 667.058L306.366 678.058L328.366 678.058ZM306.366 876.644C306.366 882.72 311.291 887.644 317.366 887.644C323.441 887.644 328.366 882.72 328.366 876.644L306.366 876.644ZM306.366 678.058L306.366 876.644L328.366 876.644L328.366 678.058L306.366 678.058Z" fill="#9ED5B7"/>
<path d="M504.872 530.263L509.836 520.447L490.093 510.741L485.128 520.557L504.872 530.263ZM307.495 871.791C304.753 877.212 306.95 883.78 312.402 886.46C317.854 889.141 324.496 886.919 327.238 881.498L307.495 871.791ZM485.128 520.557L307.495 871.791L327.238 881.498L504.872 530.263L485.128 520.557Z" fill="#9ED5B7"/>
<path d="M484.986 525.176L489.644 535.141L509.673 526.038L505.014 516.073L484.986 525.176ZM416.197 326.101C413.624 320.597 407.055 318.174 401.524 320.687C395.994 323.201 393.596 329.7 396.169 335.203L416.197 326.101ZM505.014 516.073L416.197 326.101L396.169 335.203L484.986 525.176L505.014 516.073Z" fill="#9ED5B7"/>
<path d="M308.697 882.109L316.662 889.696L332.059 873.981L324.094 866.395L308.697 882.109ZM152.769 703.219C148.37 699.029 141.357 699.15 137.105 703.49C132.854 707.829 132.973 714.744 137.372 718.933L152.769 703.219ZM324.094 866.395L152.769 703.219L137.372 718.933L308.697 882.109L324.094 866.395Z" fill="#9ED5B7"/>
<path d="M344.544 631.894C341.556 643.46 333.775 653.466 324.388 660.024C314.741 666.764 305.173 668.715 299.021 667.17C293.04 665.668 289.847 662.256 288.29 655.968C286.512 648.789 287.116 638.136 290.68 624.342C293.795 612.283 301.589 600.667 310.861 592.73C320.542 584.443 329.323 582.128 334.529 583.435C339.738 584.744 343.912 588.848 346.113 597.515C348.364 606.381 347.986 618.574 344.544 631.894Z" stroke="#9ED5B7" stroke-width="22"/>
</svg>
