<svg width="466" height="44" viewBox="0 0 466 44" fill="none" xmlns="http://www.w3.org/2000/svg">
<mask id="mask0_34_998" style="mask-type:luminance" maskUnits="userSpaceOnUse" x="94" y="0" width="156" height="44">
<path d="M94.1848 0H249.101V43.3854H94.1848V0Z" fill="white"/>
</mask>
<g mask="url(#mask0_34_998)">
<path d="M94.1848 0H249.101V43.3854H94.1848V0Z" fill="#231F20"/>
</g>
<path d="M0 40.7983H2.66667V1.07959H0V40.7983Z" fill="#231F20"/>
<path d="M43.9691 41.4806H44.9378V1.07959H42.3232V34.84H41.9847L12.7087 0.45459H11.7451V40.7983H14.3545V7.03792H14.7503L43.9691 41.4806Z" fill="#231F20"/>
<path d="M54.0161 40.7983H56.6828V28.314L65.9849 19.5223H66.438L84.7088 40.7983H87.9432L68.2557 17.5327L85.563 1.07959H82.214L57.0213 24.8556H56.6828V1.07959H54.0161V40.7983Z" fill="#231F20"/>
<path d="M275.98 41.4806C284.943 41.4806 290.391 36.939 290.391 30.4702C290.391 24.741 286.589 21.6213 276.376 19.5223C267.412 17.6473 264.287 15.2671 264.287 10.9546C264.287 6.69938 268.318 2.8973 275.298 2.8973C281.027 2.8973 285.454 4.54313 288.178 6.07438V3.35042C285.339 1.87647 280.912 0.45459 275.469 0.45459C267.24 0.45459 261.563 5.05355 261.563 11.0119C261.563 17.0223 265.709 19.9181 275.469 21.9025C284.771 23.8348 287.667 26.2723 287.667 30.6421C287.667 35.5796 282.959 39.0952 276.146 39.0952C271.495 39.0952 265.199 37.7931 260.6 34.9546L259.975 37.4494C264.178 39.8921 271.438 41.4806 275.98 41.4806Z" fill="#231F20"/>
<path d="M297.825 40.7983H300.434V22.5275H328.403V40.7983H331.018V1.07959H328.403V19.9754H300.434V1.07959H297.825V40.7983Z" fill="#231F20"/>
<path d="M340.04 40.7983H342.649V23.8348L356.717 23.7775L367.498 40.7983H370.394L359.441 23.6056C365.685 22.6421 370.05 18.215 370.05 12.2567C370.05 5.50667 364.55 1.07959 356.946 1.07959H340.04V40.7983ZM342.649 21.6213V3.57959H356.607C362.847 3.57959 367.383 7.03792 367.383 12.4858C367.383 17.9338 362.847 21.6213 356.607 21.6213H342.649Z" fill="#231F20"/>
<path d="M377.658 40.7983H380.325V1.07959H377.658V40.7983Z" fill="#231F20"/>
<path d="M421.627 41.4806H422.596V1.07959H419.981V34.84H419.643L390.367 0.45459H389.403V40.7983H392.012V7.03792H392.408L421.627 41.4806Z" fill="#231F20"/>
<path d="M431.674 40.7983H434.341V28.314L443.643 19.5223H444.096L462.367 40.7983H465.601L445.914 17.5327L463.221 1.07959H459.872L434.68 24.8556H434.341V1.07959H431.674V40.7983Z" fill="#231F20"/>
</svg>
